<svg width="29" height="19" viewBox="0 0 29 19" fill="none" xmlns="http://www.w3.org/2000/svg">
<path d="M11.5954 0C8.54351 0 5.78079 0.340297 3.74498 0.906152C2.72707 1.18908 1.89098 1.52493 1.27315 1.93094C0.655316 2.33694 0.204321 2.85662 0.204321 3.50415C0.204321 3.51224 0.205997 3.51983 0.206137 3.52788C0.158253 3.56794 0.118868 3.61725 0.0903207 3.6729C0.0617733 3.72855 0.0446458 3.7894 0.0399561 3.85183C0.0156163 4.17698 0 4.50786 0 4.84559C0 9.36355 2.2917 13.324 5.70464 15.4502C5.45099 15.6856 5.27057 15.9698 5.27057 16.3253C5.27057 16.778 5.54205 17.1346 5.89171 17.4341C6.24137 17.7336 6.70486 17.9953 7.26474 18.2243C8.38452 18.6825 9.88937 19 11.5564 19C13.2234 19 14.7283 18.6825 15.848 18.2243C16.4079 17.9953 16.8723 17.7336 17.222 17.4341C17.5716 17.1346 17.8422 16.778 17.8422 16.3253C17.8422 15.9254 17.6236 15.6115 17.3173 15.3617C18.6123 14.5279 19.7394 13.4276 20.6346 12.1322C21.6927 11.1314 23.0873 10.3642 24.2561 9.53331C25.5891 8.58532 27.1873 7.64837 28.278 6.40603C29.6101 4.88897 28.993 2.88155 27.2927 1.99664C25.8952 1.26951 24.1687 2.11264 22.9039 3.03602C22.7465 2.60051 22.3779 2.23393 21.9168 1.93094C21.299 1.52493 20.4629 1.18908 19.445 0.906152C17.4092 0.340297 14.6474 0 11.5954 0ZM11.5954 0.934441C14.5779 0.934441 17.2784 1.27353 19.1971 1.80683C20.1564 2.07348 20.9203 2.39232 21.4083 2.71298C21.8963 3.03364 22.0567 3.31307 22.0567 3.50415C22.0567 3.52008 22.0481 3.53996 22.0458 3.55708C21.9983 3.60491 21.9618 3.66251 21.9386 3.7259C21.9227 3.76947 21.847 3.86239 21.7161 3.97594C21.6697 3.88055 21.6068 3.79096 21.53 3.70948C21.3688 3.53843 21.1506 3.38992 20.8807 3.25138C20.3409 2.97431 19.5892 2.73712 18.6668 2.53686C16.8219 2.13636 14.2951 1.8917 11.5028 1.8917C8.97472 1.8917 6.66286 2.09249 4.87918 2.42736C4.84913 2.43305 4.82049 2.44463 4.79489 2.46144C4.76929 2.47826 4.74723 2.49998 4.72999 2.52536C4.71274 2.55073 4.70064 2.57928 4.69437 2.60936C4.6881 2.63944 4.68779 2.67047 4.69345 2.70067C4.69912 2.73087 4.71065 2.75965 4.72738 2.78538C4.74412 2.8111 4.76573 2.83326 4.79099 2.85058C4.81625 2.86791 4.84466 2.88007 4.87459 2.88637C4.90453 2.89266 4.9354 2.89297 4.96545 2.88728C6.7107 2.55962 8.99929 2.35892 11.5028 2.35892C14.268 2.35892 16.7715 2.6039 18.5687 2.99404C19.4673 3.18912 20.1905 3.4218 20.6691 3.6675C20.9084 3.79035 21.0853 3.91726 21.1922 4.03069C21.275 4.11862 21.306 4.18888 21.3193 4.25335C21.2425 4.29946 21.1696 4.34543 21.0777 4.39114C20.528 4.66476 19.7421 4.93706 18.7866 5.17137C16.8757 5.63997 14.2846 5.96254 11.4392 5.96254C8.59387 5.96254 6.00376 5.64003 4.09278 5.17137C3.56213 5.04123 3.09011 4.89887 2.67524 4.7516C2.3202 4.60356 2.0172 4.4501 1.78168 4.29533C1.74377 4.27041 1.72036 4.24763 1.68633 4.22324C1.7172 4.13074 1.79982 4.02087 1.96421 3.89563C2.18338 3.72866 2.531 3.55515 2.98218 3.39465C3.0344 3.37723 3.07878 3.34176 3.10743 3.29456C3.13608 3.24735 3.14714 3.19146 3.13864 3.13683C3.13014 3.0822 3.10264 3.03237 3.06102 2.9962C3.0194 2.96003 2.96637 2.93987 2.91135 2.93929C2.88254 2.93886 2.8539 2.94381 2.82689 2.95389C2.34818 3.12419 1.9638 3.30916 1.6827 3.52332C1.53348 3.63699 1.41197 3.76567 1.32763 3.90658C1.19497 3.75049 1.13421 3.61225 1.13421 3.50415C1.13421 3.31307 1.29372 3.03364 1.78168 2.71298C2.26964 2.39232 3.03354 2.07348 3.99289 1.80683C5.91157 1.27353 8.61301 0.934441 11.5954 0.934441ZM3.99289 2.62264C3.97177 2.6222 3.95069 2.62466 3.93023 2.62994C3.82041 2.65599 3.81839 2.65757 3.71773 2.68378C3.68816 2.69151 3.66039 2.70502 3.63601 2.72353C3.61163 2.74205 3.59112 2.7652 3.57564 2.79169C3.56017 2.81817 3.55004 2.84745 3.54583 2.87787C3.54161 2.90828 3.54341 2.93923 3.5511 2.96895C3.55879 2.99867 3.57223 3.02658 3.59066 3.05107C3.60908 3.07557 3.63213 3.09619 3.65848 3.11174C3.68483 3.12728 3.71397 3.13747 3.74424 3.1417C3.7745 3.14593 3.8053 3.14413 3.83488 3.1364C3.9388 3.10934 3.93053 3.10973 4.03738 3.08439C4.09289 3.07211 4.14201 3.03983 4.17544 2.99364C4.20888 2.94744 4.22431 2.89054 4.21884 2.83369C4.21336 2.77684 4.18734 2.72397 4.14571 2.68508C4.10408 2.6462 4.04971 2.62398 3.99289 2.62264ZM26.0577 2.70477C26.7353 2.68582 27.3689 2.94615 27.8376 3.67571C28.8191 5.20399 26.9298 6.41173 25.9115 7.18078C24.6794 8.11102 23.4097 8.99133 22.1502 9.88372C22.0217 9.97478 21.8824 10.0679 21.7488 10.1584C22.4727 8.54939 22.8785 6.74661 22.8785 4.84559C22.8785 4.6422 22.8647 4.44624 22.8549 4.24787L22.8567 4.24696C23.6765 3.5435 24.9285 2.73635 26.0577 2.70477ZM0.939876 4.95236C1.08792 5.04407 1.21446 5.14226 1.38847 5.22886C1.65804 5.36301 1.96976 5.48975 2.30565 5.61121C2.73335 5.79037 3.21259 5.95327 3.74498 6.10124C5.78079 6.6671 8.54351 7.00831 11.5954 7.00831C14.6474 7.00831 17.4092 6.6671 19.445 6.10124C20.4629 5.81832 21.299 5.48338 21.9168 5.07737C21.9234 5.07308 21.9285 5.06801 21.935 5.06369C21.8921 7.48402 21.1489 9.71262 19.9163 11.529C19.8534 11.5884 19.7896 11.647 19.7301 11.7088C19.6553 11.7865 19.6252 11.8713 19.6121 11.9561C17.6862 14.5283 14.7397 16.1702 11.4392 16.1702C5.68071 16.1702 0.994448 11.1778 0.939876 4.95236ZM16.4301 15.8773C16.4532 15.8973 16.4781 15.9151 16.5046 15.9302C16.8466 16.131 16.9123 16.2892 16.9123 16.3253C16.9123 16.3565 16.8585 16.5181 16.619 16.7232C16.3796 16.9283 15.991 17.1574 15.4975 17.3593C14.5105 17.763 13.1045 18.0656 11.5564 18.0656C10.0083 18.0656 8.60227 17.763 7.61527 17.3593C7.12177 17.1574 6.73412 16.9283 6.49468 16.7232C6.25524 16.5181 6.20046 16.3565 6.20046 16.3253C6.20046 16.2892 6.26736 16.1385 6.58549 15.9457C8.05833 16.6874 9.70227 17.1047 11.4392 17.1047C13.2301 17.1047 14.9227 16.6627 16.4301 15.8773Z" fill="#66A9F7"/>
</svg>
