<svg width="51" height="95" viewBox="0 0 51 95" fill="none" xmlns="http://www.w3.org/2000/svg">
<path d="M0.500204 87.5753V75.6122H3.20945V78.8215V79.3215H3.70945H47.2931H47.7931V78.8215V60.2752V59.7752H47.2931H3.70945H3.20945V60.2752V63.4845H0.500204L0.500209 24.7592L0.500198 24.7568C0.478642 20.3156 2.22104 16.0474 5.34456 12.8902C8.46774 9.73321 12.7163 7.94507 17.157 7.91849H17.6191H18.1191V7.41849V3.70925C18.1191 2.8581 18.4572 2.04182 19.0591 1.43997C19.6609 0.838116 20.4772 0.5 21.3284 0.5H30.6015C31.4526 0.5 32.2689 0.838116 32.8708 1.43997C33.4726 2.04182 33.8107 2.8581 33.8107 3.70925V7.41849V7.89756L34.2894 7.91803C38.4763 8.09713 42.453 9.80176 45.4697 12.7102C48.4007 15.9095 50.1704 20.0018 50.4942 24.3288C50.4941 24.3273 50.4941 24.3591 50.4944 24.427C50.4947 24.5555 50.4955 24.8135 50.4961 25.2216C50.497 25.8261 50.4977 26.7321 50.4983 27.9552C50.4994 30.4014 50.5 34.1158 50.5 39.223C50.5 49.4372 50.4977 65.2223 50.493 87.5752L50.493 87.5773C50.4999 89.2951 49.8247 90.9454 48.6156 92.1658C47.4069 93.3857 45.7635 94.0763 44.0462 94.0858C44.0458 94.0858 44.0453 94.0858 44.0448 94.0858H6.95703C6.95641 94.0858 6.95579 94.0858 6.95517 94.0858C6.10449 94.0821 5.26283 93.9111 4.47818 93.5824C3.69296 93.2535 2.98022 92.7731 2.38065 92.1688C1.78107 91.5644 1.30641 90.8479 0.983766 90.0601C0.661117 89.2722 0.496801 88.4286 0.500204 87.5773V87.5753ZM44.0475 91.3765L44.0531 91.3765C45.0521 91.3652 46.0057 90.9583 46.7051 90.2449C47.4037 89.5323 47.7915 88.572 47.7838 87.5742L47.8023 82.5325L47.8042 82.0307H47.3023H3.71872H3.21872V82.5307V87.5732C3.21076 88.5714 3.59863 89.5321 4.29745 90.2449C4.99679 90.9583 5.95047 91.3652 6.94939 91.3765H6.95504L44.0475 91.3765ZM33.8499 10.6277H33.8471L17.1555 10.6277L17.1526 10.6277C13.8799 10.6465 10.7171 11.811 8.21367 13.9191C5.71027 16.0273 4.02445 18.9457 3.44906 22.1676L3.34407 22.7555H3.94128H47.0612H47.6585L47.5535 22.1676C46.9781 18.9457 45.2923 16.0273 42.7889 13.9191C40.2855 11.811 37.1227 10.6465 33.8499 10.6277ZM47.2931 57.066H47.7931V56.566V25.9647V25.4647H47.2931H3.70945H3.20945V25.9647V56.566V57.066H3.70945H47.2931Z" stroke="#66A9F7"/>
<path d="M1.85482 68.1937C2.60296 68.1937 3.20944 68.8002 3.20944 69.5483C3.20944 70.2965 2.60296 70.903 1.85482 70.903C1.10668 70.903 0.500199 70.2965 0.500199 69.5483C0.500199 68.8002 1.10668 68.1937 1.85482 68.1937Z" stroke="#66A9F7"/>
</svg>
