<svg width="73" height="122" viewBox="0 0 73 122" fill="none" xmlns="http://www.w3.org/2000/svg">
<path d="M50.6128 21.3897V21.8897H51.1128H64.1081C68.7349 21.8897 72.5 25.6546 72.5 30.2817V41.2255C72.5 43.6276 71.4844 45.7959 69.8583 47.3281L69.4722 47.6919L69.8582 48.0558C71.4837 49.5882 72.4995 51.7565 72.4995 54.1587V65.1023C72.4995 67.5044 71.4837 69.6727 69.8582 71.2052L69.4723 71.569L69.8582 71.9328C71.4837 73.4652 72.4995 75.6336 72.4995 78.0357V88.9793C72.4995 91.3814 71.4837 93.5497 69.8582 95.0822L69.4723 95.446L69.8582 95.8098C71.4837 97.3422 72.4995 99.5106 72.4995 101.913V112.856C72.4995 117.483 68.7347 121.248 64.1076 121.248H8.89194C4.26507 121.248 0.5 117.483 0.5 112.856V101.913C0.5 99.5106 1.51586 97.3422 3.14131 95.8098L3.52722 95.446L3.14129 95.0821C1.51564 93.5497 0.5 91.3814 0.5 88.9793V78.0357C0.5 75.6336 1.51586 73.4652 3.14131 71.9328L3.52722 71.5689L3.14129 71.2051C1.51564 69.6727 0.5 67.5044 0.5 65.1023V54.1587C0.5 51.7565 1.51586 49.5882 3.14131 48.0558L3.52722 47.6919L3.14129 47.3281C1.51564 45.7957 0.5 43.6274 0.5 41.2255V30.2817C0.5 25.6548 4.26485 21.8897 8.89194 21.8897H21.8872H22.3872V21.3897V15.0481V14.5481H21.8872H21.0792C20.0161 14.5481 19.1539 13.686 19.1539 12.6229V5.78306C19.1539 2.87021 21.5244 0.5 24.437 0.5H48.563C51.4759 0.5 53.8461 2.8702 53.8461 5.78306V12.6229C53.8461 13.686 52.9839 14.5481 51.9208 14.5481H51.1128H50.6128V15.0481V21.3897ZM49.4958 10.6976H49.9958V10.1976V5.78306C49.9958 4.9925 49.3534 4.35045 48.5632 4.35045H24.4375C23.6469 4.35045 23.0049 4.9929 23.0049 5.78306V10.1976V10.6976H23.5049H49.4958ZM46.7621 15.0481V14.5481H46.2621H26.7381H26.2381V15.0481V21.3897V21.8897H26.7381H46.2621H46.7621V21.3897V15.0481ZM68.6496 112.857V112.357H68.6493V101.913C68.6493 99.4084 66.6123 97.3717 64.1078 97.3717H8.89217C6.3877 97.3717 4.35069 99.4087 4.35069 101.913V112.857C4.35069 115.361 6.3877 117.398 8.89217 117.398H64.1081C66.6125 117.398 68.6496 115.361 68.6496 112.857ZM68.6496 88.9795V88.4795H68.6493V78.0359C68.6493 75.5312 66.6123 73.4944 64.1078 73.4944H8.89217C6.3877 73.4944 4.35069 75.5314 4.35069 78.0359V88.9795C4.35069 91.484 6.3877 93.521 8.89217 93.521H64.1081C66.6125 93.521 68.6496 91.484 68.6496 88.9795ZM68.6496 65.1025V64.6025H68.6493V54.1589C68.6493 51.6542 66.6123 49.6171 64.1078 49.6174H8.89217C6.3877 49.6174 4.35069 51.6544 4.35069 54.1589V65.1025C4.35069 67.607 6.3877 69.644 8.89217 69.644H64.1081C66.6125 69.644 68.6496 67.607 68.6496 65.1025ZM68.6496 41.2255V40.7255H68.6493V30.2817C68.6493 27.7772 66.6123 25.7402 64.1078 25.7402H8.89217C6.3877 25.7402 4.35069 27.7772 4.35069 30.2817V41.2255C4.35069 43.73 6.38773 45.7667 8.89217 45.7667H64.1081C66.6125 45.7667 68.6496 43.73 68.6496 41.2255Z" stroke="#66A9F7"/>
<path d="M9.88733 38.3344H27.2976C28.3607 38.3344 29.2229 39.1965 29.2229 40.2596C29.2229 41.3227 28.3607 42.1848 27.2976 42.1848H9.88733C8.82424 42.1848 7.96211 41.3227 7.96211 40.2596C7.96211 39.1965 8.82424 38.3344 9.88733 38.3344Z" stroke="#66A9F7"/>
<path d="M34.7593 38.3344H36.2516C37.3147 38.3344 38.1769 39.1965 38.1769 40.2596C38.1769 41.3227 37.3147 42.1848 36.2516 42.1848H34.7593C33.6962 42.1848 32.834 41.3227 32.834 40.2596C32.834 39.1965 33.6962 38.3344 34.7593 38.3344Z" stroke="#66A9F7"/>
</svg>
