<svg width="39" height="42" viewBox="0 0 39 42" fill="none" xmlns="http://www.w3.org/2000/svg">
<path d="M29.709 7.70872L29.656 8.25679H30.2067H30.8119C34.632 8.25679 37.7463 11.3656 37.7462 15.1845V23.3525C37.7462 27.1682 34.6352 30.2432 30.8119 30.2432H27.983H27.5288L27.4853 30.6952L26.8636 37.1462C26.6243 39.6231 24.5699 41.5 22.0856 41.5H8.65541C6.16839 41.5 4.11624 39.64 3.87717 37.1657L0.532185 2.53876C0.532183 2.53874 0.532181 2.53872 0.532179 2.5387C0.48186 2.01699 0.655171 1.49594 1.00788 1.10758L1.00794 1.10752C1.35914 0.720697 1.8622 0.5 2.38838 0.5H28.3524C28.8786 0.5 29.3817 0.720714 29.7327 1.1075L29.7329 1.1077C30.0859 1.49629 30.2589 2.01568 30.2085 2.53697L29.709 7.70872ZM2.90936 2.33787H2.35873L2.41168 2.88595L5.70663 36.9917C5.85414 38.519 7.12508 39.6622 8.65541 39.6622H22.0856C23.6157 39.6622 24.8867 38.5189 25.0343 36.9918L28.3292 2.88595L28.3822 2.33787H27.8315H2.90936ZM27.7593 27.8572L27.7063 28.4054H28.257H30.812C33.6128 28.4054 35.9084 26.1658 35.9084 23.3526V15.1845C35.9084 12.3766 33.6181 10.0946 30.812 10.0946H29.9327H29.4787L29.435 10.5464L27.7593 27.8572Z" stroke="#66A9F7"/>
</svg>
