<svg width="30" height="60" viewBox="0 0 30 60" fill="none" xmlns="http://www.w3.org/2000/svg">
<path d="M22.5863 10.0698C22.8435 12.1378 23.5243 14.1299 24.5854 15.922L24.5802 15.959L24.6766 16.1134C27.8085 21.1303 29.4788 26.9214 29.4999 32.8355L29.4999 54.8666L29.4999 54.8704C29.5039 55.4014 29.4032 55.9281 29.2036 56.4202C29.004 56.9124 28.7095 57.3604 28.3368 57.7387C27.964 58.117 27.5205 58.4182 27.0313 58.6251C26.5428 58.8317 26.0184 58.9402 25.4881 58.9444H16.4678V57.6894L25.4785 57.6894L25.4858 57.6893C25.8521 57.6839 26.2137 57.6065 26.55 57.4613C26.8863 57.3162 27.1907 57.1062 27.4459 56.8434C27.701 56.5806 27.9019 56.2701 28.0371 55.9297C28.1717 55.5904 28.2385 55.228 28.2335 54.8631V37.2491V36.8751L27.8748 36.7695C26.554 36.3804 25.3225 35.2741 24.0076 34.0626L23.9827 34.0395C23.3504 33.457 22.682 32.8411 22.0384 32.3711C21.4048 31.9084 20.6981 31.5117 20.0044 31.5117C19.311 31.5117 18.6029 31.9081 17.9679 32.3708C17.3162 32.8457 16.6393 33.4694 16.0008 34.0576L15.9965 34.0616C15.9963 34.0618 15.996 34.0621 15.9957 34.0623C15.1831 34.8068 14.3941 35.5289 13.5765 36.0695C12.7621 36.608 11.964 36.9351 11.142 36.9351C10.3199 36.9351 9.52029 36.6079 8.70522 36.0694C7.89 35.5308 7.10357 34.8118 6.2972 34.0705C5.44335 33.2048 4.48229 32.4519 3.4374 31.8301L2.68169 31.3804V32.2598V32.2611V32.2625V32.2638V32.2652V32.2665V32.2679V32.2693V32.2706V32.272V32.2733V32.2747V32.276V32.2774V32.2787V32.2801V32.2814V32.2828V32.2841V32.2855V32.2868V32.2882V32.2895V32.2909V32.2922V32.2936V32.2949V32.2963V32.2977V32.299V32.3004V32.3017V32.3031V32.3044V32.3058V32.3071V32.3085V32.3098V32.3112V32.3125V32.3139V32.3152V32.3166V32.3179V32.3193V32.3206V32.3219V32.3233V32.3246V32.326V32.3273V32.3287V32.33V32.3314V32.3327V32.3341V32.3354V32.3368V32.3381V32.3395V32.3408V32.3422V32.3435V32.3449V32.3462V32.3476V32.3489V32.3503V32.3516V32.3529V32.3543V32.3556V32.357V32.3583V32.3597V32.361V32.3624V32.3637V32.3651V32.3664V32.3678V32.3691V32.3704V32.3718V32.3731V32.3745V32.3758V32.3772V32.3785V32.3799V32.3812V32.3826V32.3839V32.3852V32.3866V32.3879V32.3893V32.3906V32.392V32.3933V32.3947V32.396V32.3973V32.3987V32.4V32.4014V32.4027V32.4041V32.4054V32.4067V32.4081V32.4094V32.4108V32.4121V32.4135V32.4148V32.4161V32.4175V32.4188V32.4202V32.4215V32.4229V32.4242V32.4255V32.4269V32.4282V32.4296V32.4309V32.4323V32.4336V32.4349V32.4363V32.4376V32.439V32.4403V32.4416V32.443V32.4443V32.4457V32.447V32.4484V32.4497V32.451V32.4524V32.4537V32.4551V32.4564V32.4577V32.4591V32.4604V32.4618V32.4631V32.4644V32.4658V32.4671V32.4685V32.4698V32.4711V32.4725V32.4738V32.4752V32.4765V32.4778V32.4792V32.4805V32.4819V32.4832V32.4845V32.4859V32.4872V32.4886V32.4899V32.4912V32.4926V32.4939V32.4953V32.4966V32.4979V32.4993V32.5006V32.502V32.5033V32.5046V32.506V32.5073V32.5087V32.51V32.5113V32.5127V32.514V32.5154V32.5167V32.518V32.5194V32.5207V32.522V32.5234V32.5247V32.5261V32.5274V32.5287V32.5301V32.5314V32.5328V32.5341V32.5354V32.5368V32.5381V32.5394V32.5408V32.5421V32.5435V32.5448V32.5461V32.5475V32.5488V32.5502V32.5515V32.5528V32.5542V32.5555V32.5568V32.5582V32.5595V32.5609V32.5622V32.5635V32.5649V32.5662V32.5676V32.5689V32.5702V32.5716V32.5729V32.5742V32.5756V32.5769V32.5783V32.5796V32.5809V32.5823V32.5836V32.5849V32.5863V32.5876V32.589V32.5903V32.5916V32.593V32.5943V32.5956V32.597V32.5983V32.5997V32.601V32.6023V32.6037V32.605V32.6063V32.6077V32.609V32.6104V32.6117V32.613V32.6144V32.6157V32.6171V32.6184V32.6197V32.6211V32.6224V32.6237V32.6251V32.6264V32.6278V32.6291V32.6304V32.6318V32.6331V32.6344V32.6358V32.6371V32.6385V32.6398V32.6411V32.6425V32.6438V32.6451V32.6465V32.6478V32.6492V32.6505V32.6518V32.6532V32.6545V32.6559V32.6572V32.6585V32.6599V32.6612V32.6625V32.6639V32.6652V32.6666V32.6679V32.6692V32.6706V32.6719V32.6733V32.6746V32.6759V32.6773V32.6786V32.6799V32.6813V32.6826V32.684V32.6853V32.6866V32.688V32.6893V32.6907V32.692V32.6933V32.6947V32.696V32.6974V32.6987V32.7V32.7014V32.7027V32.704V32.7054V32.7067V32.7081V32.7094V32.7107V32.7121V32.7134V32.7148V32.7161V32.7174V32.7188V32.7201V32.7215V32.7228V32.7241V32.7255V32.7268V32.7282V32.7295V32.7308V32.7322V32.7335V32.7349V32.7362V32.7375V32.7389V32.7402V32.7416V32.7429V32.7442V32.7456V32.7469V32.7483V32.7496V32.7509V32.7523V32.7536V32.755V32.7563V32.7577V32.759V32.7603V32.7617V32.763V32.7644V32.7657V32.767V32.7684V32.7697V32.7711V32.7724V32.7738V32.7751V32.7764V32.7778V32.7791V32.7805V32.7818V32.7831V32.7845V32.7858V32.7872V32.7885V32.7899V32.7912V32.7925V32.7939V32.7952V32.7966V32.7979V32.7993V32.8006V32.8019V32.8033V32.8046V32.806V32.8073V32.8087V32.81V32.8113V32.8127V32.814V32.8154V32.8167V32.8181V32.8194V32.8208V32.8221V32.8234V32.8248V32.8261V32.8275V32.8288V32.8302V32.8315V32.8329V32.8342V32.8356V32.8369V32.8382V32.8396V32.8409V32.8423V32.8436V32.845V32.8463V32.8477V32.849V32.8504V32.8517V32.8531V32.8544V32.8557V32.8571V32.8584V32.8598V32.8611V32.8625V32.8638V32.8652V32.8665V32.8679V32.8692V32.8706V32.8719V32.8733V32.8746V32.876V32.8773V32.8787V32.88V32.8813V32.8827V32.884V32.8854V32.8867V32.8881V32.8894V32.8908V32.8921V32.8935V32.8948V32.8962V32.8975V32.8989V32.9002V32.9016V32.9029V32.9043V32.9056V32.907V32.9083V32.9097V32.911V32.9124V32.9137V32.9151V32.9165V32.9178V32.9192V32.9205V32.9219V32.9232V32.9246V32.9259V32.9273V32.9286V32.93V32.9313V32.9327V32.934V32.9354V32.9367V32.9381V32.9394V32.9408V32.9422V32.9435V32.9449V32.9462V32.9476V54.8631C2.67677 55.228 2.74352 55.5904 2.87818 55.9296L3.34291 55.7452L2.87818 55.9297C3.01332 56.2701 3.2142 56.5806 3.46935 56.8434C3.72451 57.1062 4.02893 57.3162 4.36524 57.4613C4.70155 57.6065 5.06315 57.6839 5.42941 57.6893L5.42941 57.6894H5.43674H8.70267V58.9444H5.43846C4.90808 58.9402 4.38369 58.8317 3.89518 58.6251C3.40606 58.4182 2.96247 58.117 2.58974 57.7387C2.21702 57.3604 1.92247 56.9124 1.7229 56.4202C1.52333 55.9281 1.42266 55.4014 1.42664 54.8704V54.8666V32.948C1.43779 27.0443 3.09342 21.261 6.20718 16.2462L6.21096 16.2429L6.26601 16.1933L6.30434 16.1299C7.42898 14.27 8.14425 12.1918 8.40248 10.0337L8.46941 9.47425H7.90602H7.05474C6.88831 9.47425 6.7287 9.40814 6.61101 9.29045C6.49333 9.17277 6.42721 9.01315 6.42721 8.84672V1.94064C6.42721 1.77421 6.49333 1.61459 6.61101 1.49691C6.7287 1.37922 6.88831 1.31311 7.05474 1.31311H23.4039C23.5703 1.31311 23.7299 1.37922 23.8476 1.49691C23.9653 1.61459 24.0314 1.77421 24.0314 1.94064V8.88055C24.0314 9.04698 23.9653 9.20659 23.8476 9.32428C23.7299 9.44196 23.5703 9.50807 23.4039 9.50807H23.0825H22.5165L22.5863 10.0698ZM8.13716 2.56816H7.63716V3.06816V7.7192V8.2192H8.13716H22.2312H22.7312V7.7192V3.06816V2.56816H22.2312H8.13716ZM27.4744 35.2172L28.2448 35.7127V34.7967L28.2448 32.8461L28.2448 32.8442C28.2234 27.1701 26.6223 21.614 23.621 16.7986C23.6205 16.7978 23.62 16.797 23.6196 16.7962L23.5441 16.6722C23.5439 16.6719 23.5437 16.6715 23.5435 16.6712C22.2999 14.6163 21.5214 12.314 21.2625 9.92601L21.2142 9.47989H20.7654H10.178H9.7278L9.68072 9.92761C9.42598 12.3505 8.64139 14.6876 7.38257 16.7734C7.38242 16.7737 7.38227 16.7739 7.38211 16.7742L7.30589 16.8994C7.3056 16.8999 7.3053 16.9004 7.30501 16.9008C4.879 20.828 3.36375 25.2489 2.87059 29.8386L2.82539 30.2592L3.23278 30.3734C4.58214 30.7516 5.88056 31.9064 7.16936 33.115C7.80141 33.7077 8.4799 34.332 9.1371 34.8078C9.77471 35.2694 10.4864 35.6632 11.1758 35.6632C11.8662 35.6632 12.5728 35.2683 13.207 34.8072C13.8599 34.3324 14.5387 33.708 15.1791 33.118L15.1827 33.1146C15.9814 32.3641 16.7665 31.6406 17.5812 31.1018C18.3929 30.5649 19.1927 30.2398 20.0156 30.2398C20.8376 30.2398 21.6357 30.5669 22.4499 31.1059C23.265 31.6455 24.0517 32.3664 24.8617 33.1111C25.6549 33.9044 26.5308 34.6104 27.4744 35.2172Z" stroke="#66A9F7"/>
<path d="M12.5853 57.6894C12.9318 57.6894 13.2128 57.9703 13.2128 58.3169C13.2128 58.6635 12.9318 58.9444 12.5853 58.9444C12.2387 58.9444 11.9577 58.6635 11.9577 58.3169C11.9577 57.9703 12.2387 57.6894 12.5853 57.6894Z" stroke="#66A9F7"/>
</svg>
