<svg width="29" height="70" viewBox="0 0 29 70" fill="none" xmlns="http://www.w3.org/2000/svg">
<path d="M20.0186 11.9679V12.4185L20.4669 12.4652C22.3991 12.6663 24.1887 13.5751 25.4909 15.0167C26.793 16.4581 27.5159 18.3302 27.5204 20.2725C27.5204 20.2728 27.5204 20.2731 27.5204 20.2734L27.5204 68.1517C27.5204 68.3352 27.4475 68.5113 27.3177 68.641C27.1879 68.7708 27.0119 68.8437 26.8284 68.8437L1.19996 68.8437L1.19664 68.8437C1.10537 68.8443 1.01488 68.8269 0.930385 68.7924C0.845898 68.7579 0.769065 68.707 0.704315 68.6427C0.639563 68.5784 0.588177 68.5019 0.553112 68.4176C0.51805 68.3334 0.499998 68.243 0.5 68.1517V20.2728C0.50446 18.3303 1.22733 16.4582 2.52947 15.0167C3.83172 13.5751 5.62127 12.6663 7.55353 12.4652L8.00177 12.4185V11.9679V9.04345C8.00177 8.85992 8.07468 8.6839 8.20446 8.55412C8.33424 8.42434 8.51026 8.35143 8.69379 8.35143H9.21828H9.71828V7.85143V1.19202C9.71828 1.00848 9.79119 0.832466 9.92097 0.702688C10.0507 0.572909 10.2268 0.5 10.4103 0.5H17.6101C17.7936 0.5 17.9696 0.572908 18.0994 0.702688C18.2292 0.83247 18.3021 1.00849 18.3021 1.19202V7.85143V8.35143H18.8021H19.3266C19.5101 8.35143 19.6862 8.42434 19.8159 8.55412C19.9457 8.6839 20.0186 8.85992 20.0186 9.04345V11.9679ZM9.88581 9.73547H9.38581V10.2355V11.9281V12.4281H9.88581H18.1346H18.6346V11.9281V10.2355V9.73547H18.1346H9.88581ZM25.6364 67.4597H26.1364V66.9597V20.2723V20.2716C26.1341 18.5592 25.4528 16.9175 24.2419 15.7066C23.031 14.4957 21.3894 13.8145 19.6769 13.8122H19.6763H8.34414H8.34347C6.63102 13.8145 4.98936 14.4957 3.77848 15.7066C2.56759 16.9175 1.88632 18.5592 1.88404 20.2716V20.2723V66.9597V67.4597H2.38404H25.6364ZM15.7847 2.13623C15.2594 1.78528 14.6419 1.59795 14.0102 1.59795C13.1631 1.59795 12.3507 1.93446 11.7517 2.53344C11.1527 3.13243 10.8162 3.94483 10.8162 4.79192C10.8162 5.42362 11.0036 6.04114 11.3545 6.56639C11.7055 7.09163 12.2043 7.50101 12.7879 7.74275C13.3715 7.9845 14.0137 8.04775 14.6333 7.92451C15.2529 7.80127 15.822 7.49707 16.2687 7.05039C16.7154 6.60371 17.0196 6.0346 17.1428 5.41503C17.266 4.79546 17.2028 4.15326 16.961 3.56964C16.7193 2.98602 16.3099 2.48719 15.7847 2.13623Z" stroke="#66A9F7"/>
<path d="M5.61379 26.204C5.74357 26.0742 5.91959 26.0013 6.10312 26.0013C6.28666 26.0013 6.46268 26.0742 6.59245 26.204C6.72223 26.3337 6.79514 26.5098 6.79514 26.6933V52.3932C6.79514 52.5768 6.72223 52.7528 6.59245 52.8826C6.46268 53.0123 6.28666 53.0853 6.10312 53.0853C5.91959 53.0853 5.74357 53.0123 5.61379 52.8826C5.48401 52.7528 5.4111 52.5768 5.4111 52.3932V26.6933C5.4111 26.5098 5.48401 26.3337 5.61379 26.204Z" stroke="#66A9F7"/>
</svg>
