<svg width="41" height="78" viewBox="0 0 41 78" fill="none" xmlns="http://www.w3.org/2000/svg">
<path d="M13.8594 12.8253L14.7427 12.1355L13.6393 11.939C13.1163 11.8459 12.6437 11.6097 12.2771 11.247C11.7895 10.7647 11.5385 10.0656 11.5385 9.36V4.68C11.5385 2.39575 13.447 0.5 15.7692 0.5H25.2308C27.553 0.5 29.4615 2.39575 29.4615 4.68V9.36C29.4615 10.0656 29.2105 10.7647 28.7229 11.247C28.3563 11.6097 27.8837 11.8459 27.3607 11.939L26.2573 12.1355L27.1406 12.8253C27.4377 13.0574 27.8016 13.2312 28.2446 13.313L28.2896 13.3212H28.3306C35.253 14.8472 40.5 20.8951 40.5 28.2262V32.76C40.5 34.4425 39.3011 35.6962 37.663 36.341L37.3462 36.4657V36.8062V56.7937V57.1343L37.663 57.259C39.3011 57.9038 40.5 59.1575 40.5 60.84V70.2C40.5 74.2027 37.1747 77.5 33.1154 77.5H7.88462C3.82528 77.5 0.5 74.2027 0.5 70.2V60.84C0.5 59.1575 1.69885 57.9038 3.33698 57.259L3.65385 57.1343V56.7937V36.8062V36.4657L3.33698 36.341C1.69885 35.6962 0.5 34.4425 0.5 32.76V28.2262C0.5 20.8951 5.74705 14.8472 12.6694 13.3212H12.7104L12.7554 13.313C13.1984 13.2312 13.5623 13.0574 13.8594 12.8253ZM26.8077 9.86H27.3077V9.36V4.68C27.3077 3.53347 26.3765 2.62 25.2308 2.62H15.7692C14.6235 2.62 13.6923 3.53347 13.6923 4.68V9.36V9.86H14.1923H26.8077ZM16.8041 11.98H16.4496L16.3323 12.3145C15.7977 13.8383 14.744 15.0439 13.1602 15.353L13.148 15.3554L13.136 15.3584C13.0746 15.3736 13.0194 15.3989 12.9716 15.4306C12.9698 15.4318 12.9679 15.433 12.9662 15.4342C7.06997 16.7959 2.65385 21.9132 2.65385 28.2262V32.76C2.65385 33.9065 3.58503 34.82 4.73077 34.82H5.80769V58.78H4.73077C3.58503 58.78 2.65385 59.6935 2.65385 60.84V70.2C2.65385 73.065 5.00179 75.38 7.88462 75.38H33.1154C35.9982 75.38 38.3462 73.065 38.3462 70.2V60.84C38.3462 59.6935 37.415 58.78 36.2692 58.78H9.96154V56.66H34.6923H35.1923V56.16V37.44V36.94H34.6923H9.96154V34.82H36.2692C37.415 34.82 38.3462 33.9065 38.3462 32.76V28.2262C38.3462 21.9884 34.0346 16.9181 28.244 15.4845V15.4319L27.8398 15.353C26.256 15.0439 25.2023 13.8383 24.6677 12.3145L24.5504 11.98H24.1959H16.8041Z" stroke="#66A9F7"/>
</svg>
