<svg width="42" height="46" viewBox="0 0 42 46" fill="none" xmlns="http://www.w3.org/2000/svg">
<path d="M3.15572 8.29785H31.7273V45.7771H3.15572V8.29785Z" fill="#EBA824"/>
<path d="M3.15572 41.3221H31.7273V44.4376H3.15572V41.3221Z" fill="#EACC53"/>
<path d="M8.42272 19.2784H10.833V42.2845H8.42272V19.2784ZM16.3067 19.2784H18.7169V42.2845H16.3067V19.2784ZM24.0046 19.2784H26.4149V42.2845H24.0046V19.2784Z" fill="#EACC53"/>
<path d="M38.6646 15.1971H31.7315V16.9798H35.9525C37.4822 16.9798 38.7349 17.9819 38.7349 19.2056V34.9388C38.7349 36.1626 37.4822 37.1647 35.9525 37.1647H31.7315V38.9474H38.6646C40.1942 38.9474 41.4469 37.9452 41.4469 36.7215V17.4229C41.4469 16.1992 40.1942 15.1971 38.6646 15.1971Z" fill="#6E4921"/>
<path d="M0.993523 3.75022C0.993523 3.75022 -2.43788 8.35078 3.45339 9.83579C4.98305 10.0971 8.13746 9.72334 9.99373 9.13132C10.8743 8.98249 13.0531 8.46323 13.7972 10.3187C14.4008 11.0992 16.8565 13.3615 18.8079 10.6891C19.4115 9.53813 19.92 8.12919 22.4708 8.35078C24.0005 8.53599 28.5275 9.85233 31.7315 8.96265C31.7439 11.2117 31.7315 11.344 31.7315 11.344C31.7315 11.344 35.9484 10.8743 34.6254 6.49534C34.2079 5.34437 32.3971 3.23096 29.3832 3.26734C28.176 2.93329 27.2045 2.22882 26.4603 1.81871C25.6252 1.37221 20.8006 -0.817276 16.9516 1.44828C15.7444 1.13077 14.7729 0.538749 12.2221 0.26093C10.1095 0.115405 4.90036 0.0128759 0.993523 3.75022Z" fill="#F5ECDA"/>
<path d="M4.56549 4.04461C4.56549 4.04461 4.56962 4.03469 4.58203 4.01815C4.59443 4.00161 4.60683 3.97515 4.63164 3.94539C4.67711 3.88255 4.74326 3.79656 4.83835 3.69403C4.93344 3.58819 5.05333 3.46912 5.2063 3.33683C5.2435 3.30376 5.28485 3.27068 5.32619 3.23761L5.45435 3.13508C5.5453 3.06562 5.64039 2.99948 5.74374 2.92671C5.79336 2.89033 5.85123 2.85726 5.90498 2.82419C5.96286 2.79111 6.0166 2.75473 6.07862 2.71835C6.1365 2.68197 6.19851 2.6522 6.26052 2.61582C6.32254 2.58275 6.38868 2.54637 6.45483 2.51329C6.58713 2.44714 6.72356 2.381 6.87239 2.32146C7.01709 2.25862 7.17005 2.2024 7.32302 2.14617C7.40157 2.11641 7.48012 2.09325 7.5628 2.0668C7.64549 2.04364 7.72404 2.01388 7.80672 1.99073C7.97623 1.94773 8.14573 1.89812 8.31937 1.86505C8.40619 1.8452 8.49714 1.82866 8.58396 1.81213C8.67491 1.79559 8.76173 1.78236 8.85268 1.76913C9.03459 1.73937 9.21649 1.72283 9.40253 1.70298C9.58857 1.68645 9.77461 1.67983 9.95652 1.67322H10.4402L10.5105 1.67653C10.8785 1.69306 11.2381 1.73275 11.5771 1.79559C11.664 1.81213 11.7466 1.82866 11.8293 1.8452C11.8707 1.85512 11.912 1.86174 11.9534 1.87166C11.9947 1.88158 12.036 1.8915 12.0732 1.90473C12.1518 1.92458 12.2303 1.94773 12.3089 1.96757C12.3461 1.9775 12.3874 1.98742 12.4247 2.00065C12.4619 2.01057 12.4991 2.02711 12.5363 2.03703C12.6107 2.06349 12.681 2.08664 12.7513 2.1131C12.8215 2.13956 12.8918 2.1594 12.958 2.18917C13.0903 2.2487 13.2143 2.30162 13.3342 2.35785C13.3631 2.37107 13.3921 2.3843 13.421 2.40084C13.4499 2.41738 13.4789 2.43061 13.5037 2.44714C13.5574 2.47691 13.6112 2.50668 13.6608 2.53644C13.7104 2.56621 13.76 2.59598 13.8096 2.62244C13.8344 2.63567 13.8551 2.64889 13.8799 2.66543C13.9006 2.68197 13.9254 2.6952 13.946 2.71174C14.0287 2.77127 14.1114 2.82419 14.1776 2.88041C14.2106 2.90687 14.2478 2.93333 14.2768 2.95648C14.3099 2.97963 14.3347 3.0094 14.3636 3.03255C14.4173 3.08216 14.467 3.12516 14.5042 3.16485C14.5455 3.20453 14.5786 3.23761 14.6034 3.26407C14.6282 3.29053 14.6489 3.31368 14.6613 3.32691C14.6737 3.34014 14.6819 3.35006 14.6819 3.35006L14.6241 3.43605C14.6241 3.43605 14.4752 3.37983 14.2148 3.2806C14.1486 3.25415 14.0742 3.23099 13.9957 3.20453C13.9171 3.17808 13.8262 3.15162 13.7352 3.12185C13.6442 3.08878 13.5409 3.06562 13.4334 3.03586C13.3797 3.02263 13.3259 3.00609 13.2722 2.98955C13.2432 2.98294 13.2143 2.97302 13.1895 2.9664L13.1027 2.94656C12.9828 2.9201 12.8629 2.89033 12.7347 2.86387C12.6066 2.83742 12.4701 2.81757 12.3337 2.79111C12.0567 2.74812 11.7632 2.70843 11.4572 2.68528C11.1513 2.65882 10.833 2.64559 10.5146 2.64559H10.4526L10.3906 2.64889L10.2707 2.6522C10.188 2.65551 10.1095 2.65551 10.0268 2.65882C9.94412 2.66543 9.86557 2.66874 9.78288 2.67535C9.7002 2.68197 9.62165 2.68528 9.53896 2.6952C9.37773 2.71173 9.21236 2.72496 9.05113 2.74812C8.97258 2.75804 8.88989 2.76796 8.81134 2.77788C8.73279 2.79111 8.65424 2.80434 8.57156 2.81757C8.41445 2.84072 8.25735 2.8738 8.10439 2.90356C8.02584 2.9201 7.95142 2.93664 7.877 2.95317C7.80259 2.96971 7.72817 2.98625 7.65376 3.00609C7.50492 3.04247 7.36436 3.07885 7.2238 3.11854C7.15352 3.13839 7.08323 3.15492 7.01709 3.17477C6.95094 3.19461 6.88066 3.21446 6.81451 3.2343C6.74836 3.25415 6.68221 3.27399 6.6202 3.29714C6.55819 3.31699 6.49204 3.33683 6.43416 3.35998C6.31427 3.40298 6.19438 3.44267 6.08275 3.48566C6.02901 3.50551 5.97113 3.52866 5.91738 3.5485C5.86364 3.56835 5.81403 3.5915 5.76028 3.61134C5.65693 3.65103 5.56597 3.69072 5.47502 3.7271C5.29725 3.80317 5.14428 3.87263 5.02026 3.93216C4.89623 3.99169 4.80114 4.0413 4.73913 4.07438C4.70605 4.09091 4.68125 4.10414 4.66471 4.11406C4.64817 4.12399 4.63991 4.12729 4.63991 4.12729L4.56549 4.04461Z" fill="white"/>
</svg>
