<svg width="55" height="56" viewBox="0 0 55 56" fill="none" xmlns="http://www.w3.org/2000/svg">
<g clip-path="url(#clip0_28_260)">
<path d="M47.6643 9.86391V36.7773H42.9837V14.5444H36.2669L36.5477 9.86391H47.6643Z" fill="#AFB6BB"/>
<path d="M36.2669 14.5444L35.8691 20.9801C33.2713 20.9217 33.2363 18.6398 30.5801 18.6398C27.8771 18.6398 27.8771 20.9801 25.1857 20.9801C22.4944 20.9801 22.4945 18.6398 19.803 18.6398C17.1118 18.6398 17.1118 20.9801 14.432 20.9801C11.7408 20.9801 11.7408 18.6398 9.04933 18.6398H8.99089L8.46431 9.8638H36.5478L36.2669 14.5444Z" fill="#FFD7A3"/>
<path d="M9.04933 18.64C11.7406 18.64 11.7406 20.9802 14.432 20.9802C17.1117 20.9802 17.1117 18.64 19.803 18.64C22.4945 18.64 22.4945 20.9802 25.1857 20.9802C27.8769 20.9802 27.8769 18.64 30.5801 18.64C33.2363 18.64 33.2716 20.9217 35.8691 20.9802L34.2074 48.4787H10.8046L8.99078 18.64H9.04933Z" fill="#A26234"/>
<path d="M19.8616 29.1713C22.5528 29.1713 22.5528 31.5116 25.2443 31.5116C27.9357 31.5116 27.9357 29.1713 30.6387 29.1713C33.0522 29.1713 33.322 31.0379 35.2965 31.4258L35.9276 20.9802C33.3298 20.9218 33.2948 18.64 30.6386 18.64C27.9355 18.64 27.9355 20.9802 25.2441 20.9802C22.5529 20.9802 22.5529 18.64 19.8615 18.64C17.17 18.64 17.1702 20.9802 14.4905 20.9802C11.7992 20.9802 11.7992 18.64 9.10777 18.64H9.04922L9.69333 29.2372C11.7926 29.5604 12.0194 31.5116 14.4903 31.5116C17.1701 31.5117 17.1701 29.1713 19.8616 29.1713Z" fill="#814E26"/>
<path d="M37.133 54.3295H7.87918L10.8046 48.4787H34.2075L37.133 54.3295Z" fill="#E7ECED"/>
<path d="M34.7925 9.86391H10.2194C10.2194 6.55241 12.8639 3.86096 16.1403 3.86096C16.5851 3.86096 17.018 3.91939 17.4392 4.00136C18.4689 2.2579 20.3528 1.08775 22.506 1.08775C24.659 1.08775 26.543 2.2579 27.5727 4.00136C27.9941 3.9195 28.427 3.86096 28.8718 3.86096C32.148 3.86096 34.7925 6.55241 34.7925 9.86391Z" fill="#A26234"/>
<path d="M35.6142 8.98477C35.1861 5.60388 32.3267 2.98193 28.8716 2.98193C28.5904 2.98193 28.3036 3.00126 27.9947 3.04155C26.7275 1.28058 24.6761 0.208618 22.5061 0.208618C20.336 0.208618 18.2846 1.28058 17.0174 3.04155C16.7084 3.00126 16.4217 2.98193 16.1406 2.98193C12.6854 2.98193 9.82598 5.60399 9.39791 8.98477H7.5307L8.11325 18.6933L9.91278 48.2967L6.45659 55.2086H38.5554L35.0993 48.2966L36.7464 21.0346L37.0934 15.4236H42.1044V37.6564H48.5434V8.98477H35.6142ZM33.8472 19.1454C33.1367 18.5285 32.2528 17.7607 30.5801 17.7607C28.8988 17.7607 28.0126 18.5299 27.3003 19.1478C26.6626 19.7012 26.2019 20.101 25.1858 20.101C24.169 20.101 23.7085 19.7006 23.0714 19.1467C22.3613 18.5292 21.4775 17.7607 19.8031 17.7607C18.1267 17.7607 17.2434 18.5305 16.5335 19.1491C15.8994 19.7018 15.4412 20.101 14.432 20.101C13.4152 20.101 12.9548 19.7006 12.3176 19.1466C11.7261 18.6321 11.012 18.0144 9.82244 17.8222L9.3978 10.7428H35.6143L35.0515 19.9568C34.5947 19.7931 34.258 19.5022 33.8472 19.1454ZM34.9418 21.7504L33.3798 47.5996H11.6317L9.93308 19.6531C10.4045 19.8148 10.7467 20.1108 11.1637 20.4734C11.8738 21.0909 12.7575 21.8593 14.4319 21.8593C16.0996 21.8593 16.9806 21.0915 17.6884 20.4746C18.3251 19.9198 18.7851 19.519 19.8029 19.519C20.8199 19.519 21.2803 19.9194 21.9175 20.4734C22.6276 21.0909 23.5112 21.8593 25.1856 21.8593C26.8582 21.8593 27.7422 21.0922 28.4524 20.4759C29.0926 19.9204 29.5552 19.519 30.5799 19.519C31.5957 19.519 32.0566 19.9191 32.6943 20.4729C33.2428 20.9493 33.8989 21.5163 34.9418 21.7504ZM16.1403 4.7401C16.4761 4.7401 16.8356 4.77963 17.2713 4.86439L17.8805 4.98288L18.1962 4.44845C19.1004 2.91769 20.7518 1.9669 22.5062 1.9669C24.2606 1.9669 25.9119 2.9178 26.8159 4.44845L27.1316 4.98288L27.7408 4.86439C28.1766 4.77963 28.5359 4.7401 28.8718 4.7401C31.3569 4.7401 33.4279 6.57691 33.8393 8.98477H11.1728C11.5843 6.57702 13.6553 4.7401 16.1403 4.7401ZM9.30155 53.4503L11.3477 49.3579H33.6641L35.7102 53.4503H9.30155ZM46.7851 35.8981H43.8627V13.6654H37.2005L37.3758 10.7431H46.7851V35.8981Z" fill="black"/>
<path d="M16.0699 25.3668H13.7296V27.1251H16.0699V25.3668Z" fill="white"/>
<path d="M18.4107 28.8775H16.0704V30.6358H18.4107V28.8775Z" fill="white"/>
<path d="M21.9214 25.3668H19.5811V27.1251H21.9214V25.3668Z" fill="white"/>
<path d="M30.1123 42.9188H27.7721V44.6771H30.1123V42.9188Z" fill="white"/>
<path d="M26.6017 40.5791H24.2614V42.3374H26.6017V40.5791Z" fill="white"/>
<path d="M30.1123 37.0685H27.7721V38.8268H30.1123V37.0685Z" fill="white"/>
<path d="M30.1123 26.5367H27.7721V28.2949H30.1123V26.5367Z" fill="white"/>
<path d="M19.5805 37.0685H17.2402V38.8268H19.5805V37.0685Z" fill="white"/>
</g>
<defs>
<clipPath id="clip0_28_260">
<rect width="55" height="55" fill="white" transform="translate(0 0.208618)"/>
</clipPath>
</defs>
</svg>
