<svg width="34" height="45" viewBox="0 0 34 45" fill="none" xmlns="http://www.w3.org/2000/svg">
<path fill-rule="evenodd" clip-rule="evenodd" d="M28 5.51894H5.24142L5.24142 1.0317C5.2406 0.823627 5.32604 0.624515 5.47742 0.481759C5.62881 0.339003 5.83258 0.265372 6.04025 0.278391C13.0875 0.703219 20.154 0.703219 27.2012 0.278391C27.4089 0.265372 27.6127 0.339003 27.764 0.481759C27.9154 0.624515 28.0009 0.823627 28 1.0317L28 5.51894Z" fill="#F9E6A1"/>
<path fill-rule="evenodd" clip-rule="evenodd" d="M27.3931 35.1051L26.6194 42.8431C26.5414 43.6184 25.8889 44.2086 25.1097 44.2086H8.13177C7.35257 44.2086 6.70003 43.6184 6.62211 42.8431L5.84832 35.1051L3.95177 16.1396L3.04142 7.03618L2.96556 4.76031L30.2759 4.92873L30.2 7.03618L29.2897 16.1396L27.3931 35.1051Z" fill="#766458"/>
<path fill-rule="evenodd" clip-rule="evenodd" d="M27.3271 35.1052H5.91432C5.53023 35.1052 5.20672 34.8182 5.16101 34.4368L3.06722 16.9885C3.0414 16.7731 3.10903 16.557 3.25303 16.3947C3.39702 16.2325 3.60359 16.1396 3.82053 16.1396H29.4209C29.6379 16.1396 29.8444 16.2325 29.9884 16.3947C30.1324 16.557 30.2001 16.7731 30.1743 16.9885L28.0805 34.4368C28.0347 34.8182 27.7112 35.1052 27.3271 35.1052Z" fill="#F9E6A1"/>
<path d="M32.5518 4.00171H1.44832C1.02934 4.00171 0.689697 4.34136 0.689697 4.76033V6.27757C0.689697 6.69655 1.02934 7.03619 1.44832 7.03619H32.5518C32.9707 7.03619 33.3104 6.69655 33.3104 6.27757V4.76033C33.3104 4.34136 32.9707 4.00171 32.5518 4.00171Z" fill="#EBD996"/>
<path fill-rule="evenodd" clip-rule="evenodd" d="M6.69722 13.8638C6.30791 13.8634 5.98208 13.5684 5.94315 13.181L5.6397 10.1465C5.5978 9.72944 5.90195 9.35736 6.31904 9.31546C6.73613 9.27356 7.10822 9.57771 7.15011 9.9948L7.45356 13.0293C7.47475 13.2302 7.41491 13.4313 7.28731 13.5879C7.15971 13.7446 6.9749 13.8439 6.77384 13.8638C6.74832 13.8652 6.72274 13.8652 6.69722 13.8638Z" fill="#8A7567"/>
<path fill-rule="evenodd" clip-rule="evenodd" d="M9.50411 41.9327C9.1148 41.9324 8.78897 41.6373 8.75004 41.25L8.44659 38.2155C8.4047 37.7986 8.70868 37.4267 9.12556 37.3848C9.54244 37.3429 9.91435 37.6469 9.95625 38.0638L10.2597 41.0983C10.2809 41.2991 10.2212 41.5 10.0937 41.6567C9.96628 41.8133 9.78165 41.9127 9.58073 41.9327C9.55494 41.9327 9.52915 41.9327 9.50411 41.9327Z" fill="#8A7567"/>
<path fill-rule="evenodd" clip-rule="evenodd" d="M6.56749 21.45C6.18369 21.4496 5.86061 21.1627 5.81494 20.7816L5.63287 19.2644C5.58301 18.8484 5.87986 18.4707 6.2959 18.4208C6.71194 18.371 7.08963 18.6678 7.13949 19.0838L7.32156 20.6011C7.34552 20.8009 7.28913 21.002 7.16478 21.1602C7.04043 21.3184 6.85832 21.4207 6.65852 21.4447C6.62832 21.4483 6.59791 21.4501 6.56749 21.45Z" fill="#FFF1B8"/>
<path fill-rule="evenodd" clip-rule="evenodd" d="M7.84197 32.0707C7.45818 32.0703 7.13509 31.7834 7.08942 31.4023L6.17908 23.8161C6.12922 23.3999 6.42624 23.022 6.84249 22.9722C7.25874 22.9223 7.6366 23.2193 7.68646 23.6356L8.5968 31.2218C8.62077 31.4216 8.56437 31.6227 8.44002 31.7809C8.31568 31.9391 8.13357 32.0414 7.93377 32.0654C7.90331 32.069 7.87265 32.0708 7.84197 32.0707Z" fill="#FFF1B8"/>
</svg>
