<svg width="17" height="17" viewBox="0 0 17 17" fill="none" xmlns="http://www.w3.org/2000/svg">
<path d="M13.3903 5.94549C13.1587 5.94549 12.9709 6.13327 12.9709 6.36488V14.0234C12.9709 14.8327 12.3123 15.4912 11.503 15.4912H2.3067C1.4974 15.4912 0.838809 14.8326 0.838809 14.0234V4.82696C0.838809 4.01765 1.4974 3.3591 2.3067 3.3591H11.503C11.7346 3.3591 11.9224 3.17132 11.9224 2.93971C11.9224 2.7081 11.7346 2.52032 11.503 2.52032H2.3067C1.03476 2.52032 0 3.55505 0 4.82696V14.0234C0 15.2952 1.03476 16.33 2.3067 16.33H11.503C12.7749 16.33 13.8097 15.2952 13.8097 14.0234V6.36492C13.8097 6.13331 13.6219 5.94549 13.3903 5.94549Z" fill="#111B50"/>
<path d="M16.6201 0.379123C16.1145 -0.126477 15.2919 -0.126271 14.7867 0.379123L7.60297 7.56308C7.59336 7.5727 7.48502 7.68533 7.45696 7.74843L6.46214 9.98341C6.39149 10.1421 6.42587 10.3278 6.54873 10.4505C6.629 10.5308 6.73631 10.5734 6.84547 10.5734C6.903 10.5734 6.96094 10.5615 7.01583 10.5371L9.25085 9.54224C9.3137 9.51425 9.4265 9.40588 9.43619 9.39626L16.6201 2.21254C16.8651 1.96761 17 1.64203 17 1.29573C17 0.94947 16.8651 0.623818 16.6201 0.379123ZM16.0271 1.61929L8.8431 8.80325C8.8419 8.80448 8.84121 8.80593 8.84005 8.80692L7.6726 9.32664L8.19231 8.15923C8.19334 8.15799 8.19475 8.15734 8.19599 8.15613L15.3798 0.972208C15.5528 0.799129 15.8544 0.799335 16.0271 0.97238C16.1136 1.05859 16.1612 1.17349 16.1612 1.29573C16.1612 1.41797 16.1135 1.53283 16.0271 1.61929Z" fill="#111B50"/>
</svg>
