<svg width="22" height="22" viewBox="0 0 22 22" fill="none" xmlns="http://www.w3.org/2000/svg">
<path d="M12.375 15.8125L11.6875 15.8125V9.66797C11.6875 9.66075 11.6854 9.65388 11.6854 9.64631C11.6854 9.63875 11.6875 9.63224 11.6875 9.62502C11.6875 9.24552 11.3795 8.93752 11 8.93752H9.625C9.2455 8.93752 8.9375 9.24552 8.9375 9.62502C8.9375 10.0045 9.2455 10.3125 9.625 10.3125H10.3125V15.8125H9.625C9.2455 15.8125 8.9375 16.1205 8.9375 16.5C8.9375 16.8795 9.2455 17.1875 9.625 17.1875H12.375C12.7545 17.1875 13.0625 16.8795 13.0625 16.5C13.0625 16.1205 12.7545 15.8125 12.375 15.8125ZM11 7.5625C11.7593 7.5625 12.375 6.94684 12.375 6.1875C12.375 5.42816 11.7593 4.8125 11 4.8125C10.2407 4.8125 9.625 5.42816 9.625 6.1875C9.625 6.94684 10.2407 7.5625 11 7.5625ZM11 0C4.92491 0 0 4.92491 0 11C0 17.0754 4.92491 22 11 22C17.0754 22 22 17.0754 22 11C22 4.92491 17.0754 0 11 0ZM11 20.6467C5.69284 20.6467 1.375 16.3072 1.375 11C1.375 5.6928 5.69284 1.37496 11 1.37496C16.3072 1.37496 20.625 5.69282 20.625 11C20.625 16.3071 16.3072 20.6467 11 20.6467Z" fill="#111B50"/>
</svg>
