<svg width="41" height="50" viewBox="0 0 41 50" fill="none" xmlns="http://www.w3.org/2000/svg">
<path d="M31.6826 49.1686H14.5879L9.98828 11.986H36.2773L31.6826 49.1686Z" fill="white"/>
<path d="M31.6826 49.7057H14.5879C14.3145 49.7057 14.0898 49.5055 14.0557 49.2321L9.46094 12.0494C9.4414 11.8981 9.49023 11.7418 9.59277 11.6295C9.69531 11.5123 9.8418 11.4489 9.99316 11.4489H36.2822C36.4385 11.4489 36.585 11.5172 36.6826 11.6295C36.7852 11.7467 36.834 11.8981 36.8145 12.0494L32.2197 49.2321C32.1807 49.5055 31.9512 49.7057 31.6826 49.7057ZM15.0615 48.6315H31.2041L35.6719 12.5231H10.5986L15.0615 48.6315Z" fill="#E01042"/>
<path d="M11.4824 24.0612L14.5879 49.1686H31.6826L34.7832 24.0612H11.4824Z" fill="#F27596"/>
<path d="M31.6826 49.7057H14.5879C14.3145 49.7057 14.0898 49.5055 14.0557 49.2321L10.9502 24.1246C10.9307 23.9733 10.9795 23.817 11.082 23.7047C11.1846 23.5875 11.3311 23.524 11.4824 23.524H34.7832C34.9395 23.524 35.0859 23.5924 35.1836 23.7047C35.2861 23.8219 35.335 23.9733 35.3154 24.1246L32.21 49.2321C32.1807 49.5055 31.9512 49.7057 31.6826 49.7057ZM15.0615 48.6315H31.2041L34.1728 24.5983H12.0928L15.0615 48.6315Z" fill="#E01042"/>
<path d="M16.2285 40.0524C16.2285 40.4253 16.3767 40.783 16.6404 41.0467C16.9041 41.3105 17.2618 41.4586 17.6348 41.4586C18.0077 41.4586 18.3654 41.3105 18.6291 41.0467C18.8929 40.783 19.041 40.4253 19.041 40.0524C19.041 39.6794 18.8929 39.3217 18.6291 39.058C18.3654 38.7943 18.0077 38.6461 17.6348 38.6461C17.2618 38.6461 16.9041 38.7943 16.6404 39.058C16.3767 39.3217 16.2285 39.6794 16.2285 40.0524Z" fill="#E01042"/>
<path d="M25.9648 42.7281C25.9648 43.1011 26.113 43.4588 26.3767 43.7225C26.6404 43.9862 26.9981 44.1344 27.3711 44.1344C27.7441 44.1344 28.1017 43.9862 28.3655 43.7225C28.6292 43.4588 28.7773 43.1011 28.7773 42.7281C28.7773 42.3552 28.6292 41.9975 28.3655 41.7338C28.1017 41.4701 27.7441 41.3219 27.3711 41.3219C26.9981 41.3219 26.6404 41.4701 26.3767 41.7338C26.113 41.9975 25.9648 42.3552 25.9648 42.7281Z" fill="#E01042"/>
<path d="M18.4648 31.4733C18.4648 31.8462 18.613 32.2039 18.8767 32.4676C19.1404 32.7314 19.4981 32.8795 19.8711 32.8795C20.2441 32.8795 20.6017 32.7314 20.8655 32.4676C21.1292 32.2039 21.2773 31.8462 21.2773 31.4733C21.2773 31.1003 21.1292 30.7426 20.8655 30.4789C20.6017 30.2152 20.2441 30.067 19.8711 30.067C19.4981 30.067 19.1404 30.2152 18.8767 30.4789C18.613 30.7426 18.4648 31.1003 18.4648 31.4733Z" fill="#E01042"/>
<path d="M18.4648 49.7057C18.416 49.7057 18.3672 49.7008 18.3184 49.6862C18.0303 49.608 17.8643 49.3102 17.9473 49.027L30.3008 4.67151C30.3447 4.51038 30.4668 4.37366 30.623 4.31507L39.5293 0.862919C39.8076 0.755497 40.1152 0.892215 40.2227 1.17054C40.3301 1.44886 40.1934 1.75647 39.915 1.8639L31.2627 5.2135L18.9824 49.3102C18.9189 49.5543 18.6992 49.7057 18.4648 49.7057Z" fill="#17217F"/>
<path d="M9.98828 11.986H17.5371C17.6348 11.4781 17.6885 10.9508 17.6885 10.4137C17.6885 5.73108 13.8945 1.93713 9.21191 1.93713C4.5293 1.93713 0.735352 5.73108 0.735352 10.4137C0.735352 15.0963 4.5293 18.8903 9.21191 18.8903C9.76367 18.8903 10.3008 18.8317 10.8184 18.734L9.98828 11.986Z" fill="#FFD400"/>
<path d="M9.2168 19.4274C4.24609 19.4274 0.203125 15.3844 0.203125 10.4137C0.203125 5.44299 4.24609 1.40491 9.2168 1.40491C14.1875 1.40491 18.2305 5.44788 18.2305 10.4137C18.2305 10.9557 18.1768 11.5172 18.0693 12.0836C18.0205 12.3375 17.8008 12.5231 17.542 12.5231H10.5986L11.3555 18.6656C11.3896 18.944 11.1992 19.2076 10.9258 19.2614C10.3496 19.3737 9.77344 19.4274 9.2168 19.4274ZM9.2168 2.47913C4.8418 2.47913 1.27734 6.0387 1.27734 10.4186C1.27734 14.7985 4.83692 18.358 9.2168 18.358C9.54883 18.358 9.88574 18.3336 10.2275 18.2897L9.45606 12.0543C9.43652 11.903 9.48535 11.7467 9.58789 11.6344C9.69043 11.5172 9.83691 11.4537 9.98828 11.4537H17.0781C17.127 11.1022 17.1514 10.7555 17.1514 10.4186C17.1563 6.0387 13.5918 2.47913 9.2168 2.47913Z" fill="#C13105"/>
<path d="M12.7178 18.7096C12.5127 18.7096 12.3223 18.5924 12.2295 18.3971C12.1025 18.1285 12.2197 17.8063 12.4932 17.6842C14.3486 16.8248 15.7891 15.3014 16.541 13.402C16.6484 13.1285 16.9609 12.9918 17.2393 13.0992C17.5127 13.2067 17.6494 13.5192 17.542 13.7975C16.6875 15.9557 15.0566 17.6793 12.9473 18.6559C12.8691 18.6901 12.7959 18.7096 12.7178 18.7096Z" fill="#C13105"/>
</svg>
