<svg width="28" height="51" viewBox="0 0 28 51" fill="none" xmlns="http://www.w3.org/2000/svg">
<path d="M18.0831 4.70808V2.79651H9.45684V4.70808C9.45684 6.83621 8.82714 8.91684 7.64621 10.6878L2.64125 18.1951C1.46031 19.9661 0.830612 22.0476 0.830612 24.1757V47.6529C0.830612 48.606 1.60269 49.3781 2.55584 49.3781H24.984C25.9371 49.3781 26.7092 48.606 26.7092 47.6529V24.1757C26.7092 22.0476 26.0795 19.9661 24.8986 18.1951L19.8936 10.6878C18.7128 8.91674 18.0831 6.83611 18.0831 4.70808Z" fill="#DAE7EF"/>
<path d="M8.08604 10.688L3.08108 18.1953C1.90015 19.9663 1.27045 22.0469 1.27045 24.1759V44.6063H26.2959V24.1759C26.2959 22.047 25.6662 19.9663 24.4853 18.1953L19.4804 10.688C19.0896 10.1014 18.7652 9.47948 18.4978 8.83502H9.06851C8.80115 9.47948 8.47682 10.1014 8.08604 10.688Z" fill="white"/>
<path d="M24.9841 50.2086H2.55584C1.14654 50.2086 0 49.0621 0 47.6528V24.1756C0 21.8749 0.674358 19.6475 1.95018 17.7343L6.95504 10.227C8.04832 8.58751 8.62623 6.67906 8.62623 4.70807V1.96588H18.9136V4.70807C18.9136 6.67906 19.4914 8.58751 20.5848 10.2269L25.5897 17.7344C26.8656 19.6476 27.5399 21.875 27.5399 24.1757V47.6528C27.5399 49.0621 26.3934 50.2086 24.9841 50.2086ZM10.2875 3.6271V4.70807C10.2875 7.00817 9.61309 9.23528 8.33718 11.1486L3.33231 18.6559C2.23903 20.2954 1.66122 22.2041 1.66122 24.1757V47.6528C1.66122 48.1461 2.06255 48.5474 2.55584 48.5474H24.9841C25.4774 48.5474 25.8787 48.1461 25.8787 47.6528V24.1756C25.8787 22.204 25.3009 20.2954 24.2075 18.6559L19.2025 11.1484C17.9267 9.23519 17.2524 7.00808 17.2524 4.70797V3.6271H10.2875Z" fill="#BBD7EB"/>
<path d="M19.8083 3.65907H7.54009C7.16915 3.65907 6.86896 3.35888 6.86896 2.98794V0.879751C6.86896 0.50881 7.16915 0.208618 7.54009 0.208618H19.8083C20.1792 0.208618 20.671 0.50881 20.671 0.879751V2.98804C20.671 3.35888 20.1792 3.65907 19.8083 3.65907Z" fill="#FAF6E5"/>
<path d="M23.2579 25.2247C22.7817 25.2247 22.3952 24.8382 22.3952 24.362C22.3952 23.0181 21.9898 21.6077 21.31 20.588L18.24 16.2283C17.9657 15.8384 18.0597 15.3001 18.4487 15.0257C18.8378 14.7523 19.3761 14.8454 19.6513 15.2345L22.7334 19.6131C23.6193 20.9415 24.1205 22.666 24.1205 24.3619C24.1205 24.8382 23.7341 25.2247 23.2579 25.2247Z" fill="#E0E0E0"/>
<path d="M0.830612 45.0649V47.6528C0.830612 48.6059 1.60269 49.378 2.55584 49.378H24.984C25.9371 49.378 26.7092 48.6059 26.7092 47.6528V45.0649H0.830612Z" fill="#DAE7EF"/>
<path d="M24.9841 50.2086H2.55584C1.14654 50.2086 0 49.0621 0 47.6528V44.2344H27.5399V47.6528C27.5399 49.0621 26.3934 50.2086 24.9841 50.2086ZM1.66122 45.8955V47.6527C1.66122 48.146 2.06255 48.5473 2.55584 48.5473H24.9841C25.4774 48.5473 25.8787 48.146 25.8787 47.6527V45.8955H1.66122Z" fill="#BBD7EB"/>
</svg>
