<svg width="26" height="18" viewBox="0 0 26 18" fill="none" xmlns="http://www.w3.org/2000/svg">
<path d="M17.3548 14.7393C17.4994 14.884 17.6885 14.9561 17.878 14.9561C18.0674 14.9561 18.2565 14.884 18.4011 14.7393L25.1063 8.03491C25.245 7.89616 25.3231 7.70783 25.3231 7.51173C25.3231 7.31563 25.245 7.1273 25.1063 6.98855L18.4015 0.283042C18.1125 -0.00592782 17.6441 -0.00592782 17.3551 0.283042C17.0662 0.572012 17.0662 1.04043 17.3551 1.3294L22.8496 6.82464C22.1033 6.80318 21.3067 6.76988 20.4739 6.73325C14.4332 6.46759 6.91448 6.13829 2.92736 9.95373C1.20316 11.6039 0.32922 13.8924 0.32922 16.7547C0.32922 17.1632 0.66074 17.4947 1.06922 17.4947C1.4777 17.4947 1.80922 17.1795 1.80922 16.771C1.80922 14.2935 2.51 12.435 3.95078 11.0556C7.48132 7.67675 14.9542 8.03787 20.4087 8.27689C21.1865 8.3113 21.9324 8.3668 22.641 8.40787L17.3548 13.693C17.0658 13.9819 17.0658 14.4503 17.3548 14.7393Z" fill="#7D9FAE"/>
</svg>
