<svg width="70" height="73" viewBox="0 0 70 73" fill="none" xmlns="http://www.w3.org/2000/svg">
<path d="M34.5845 46.55C40.1349 46.55 44.6345 42.0505 44.6345 36.5C44.6345 30.9495 40.1349 26.45 34.5845 26.45C29.034 26.45 24.5345 30.9495 24.5345 36.5C24.5345 42.0505 29.034 46.55 34.5845 46.55Z" stroke="#111B50" stroke-width="6"/>
<path d="M40.4986 3.51C39.2672 3 37.7064 3 34.5845 3C31.4627 3 29.9019 3 28.6704 3.51C27.0288 4.19002 25.7245 5.49434 25.0445 7.13601C24.7341 7.88544 24.6126 8.75697 24.5651 10.0283C24.4952 11.8965 23.5371 13.6258 21.918 14.5606C20.2989 15.4954 18.3223 15.4605 16.6694 14.5868C15.5446 13.9924 14.7291 13.6618 13.9249 13.5559C12.1631 13.324 10.3814 13.8014 8.97164 14.8831C7.91432 15.6944 7.13387 17.0462 5.57297 19.7498C4.01207 22.4533 3.23162 23.8051 3.05765 25.1264C2.82573 26.8882 3.30314 28.6699 4.38489 30.0797C4.87861 30.7233 5.57253 31.2639 6.64952 31.9406C8.23277 32.9356 9.25147 34.6304 9.25137 36.5C9.25127 38.3696 8.2326 40.0641 6.64949 41.0587C5.57236 41.7357 4.87835 42.2767 4.38456 42.9203C3.30281 44.33 2.8254 46.1115 3.05735 47.8733C3.23128 49.1945 4.01173 50.5465 5.57263 53.25C7.13357 55.9534 7.91401 57.3055 8.97131 58.1165C10.3811 59.1983 12.1628 59.6756 13.9246 59.4438C14.7287 59.338 15.5442 59.0073 16.6689 58.413C18.3219 57.5393 20.2987 57.5045 21.9178 58.4391C23.537 59.3741 24.4952 61.1034 24.5651 62.972C24.6126 64.243 24.7341 65.1147 25.0445 65.8641C25.7245 67.5056 27.0288 68.8101 28.6704 69.4901C29.9019 70 31.4627 70 34.5845 70C37.7064 70 39.2672 70 40.4986 69.4901C42.1401 68.8101 43.4446 67.5056 44.1243 65.8641C44.4349 65.1147 44.5565 64.243 44.6041 62.9717C44.6737 61.1034 45.6318 59.3741 47.2509 58.4391C48.8699 57.5042 50.8468 57.5393 52.5 58.413C53.6246 59.0073 54.44 59.3376 55.244 59.4435C57.0057 59.6756 58.7876 59.1983 60.1973 58.1165C61.2546 57.3052 62.0351 55.9535 63.5959 53.2497C65.157 50.5462 65.9375 49.1945 66.1114 47.8733C66.3432 46.1115 65.8658 44.3296 64.7841 42.9199C64.2903 42.2764 63.5962 41.7354 62.5192 41.0587C60.9363 40.0641 59.9176 38.3693 59.9176 36.4997C59.9176 34.63 60.9363 32.9359 62.5192 31.9413C63.5965 31.2643 64.2907 30.7236 64.7845 30.0797C65.8662 28.6701 66.3435 26.8884 66.1117 25.1266C65.9379 23.8053 65.1573 22.4536 63.5962 19.75C62.0354 17.0464 61.2549 15.6947 60.1976 14.8834C58.788 13.8016 57.0061 13.3242 55.2443 13.5562C54.4403 13.662 53.6249 13.9926 52.5 14.587C50.8471 15.4606 48.8703 15.4956 47.2512 14.5607C45.6318 13.6259 44.6737 11.8965 44.6041 10.0281C44.5565 8.75691 44.4349 7.88541 44.1243 7.13601C43.4446 5.49434 42.1401 4.19002 40.4986 3.51Z" stroke="#111B50" stroke-width="6"/>
</svg>
