<svg width="35" height="54" viewBox="0 0 35 54" fill="none" xmlns="http://www.w3.org/2000/svg">
<path d="M12.9173 46.5894L14.1398 46.4361C14.7747 46.3567 15.2246 45.7771 15.1445 45.1428L9.54871 1.45041L6.0275 1.89227L11.6233 45.5841C11.7034 46.2196 12.2824 46.6695 12.9173 46.5894Z" fill="#EDEDED"/>
<path d="M12.7671 47.8399C12.2371 47.8399 11.7257 47.6649 11.3 47.3348C10.7942 46.9413 10.4715 46.3747 10.3915 45.7392L4.79626 2.0499C4.75468 1.72285 4.84466 1.3927 5.04636 1.13205C5.24867 0.871408 5.54593 0.701988 5.87298 0.661029L9.39419 0.219171C10.0725 0.131048 10.6931 0.614485 10.78 1.29279L16.3758 44.9852C16.4559 45.6238 16.2833 46.2531 15.8905 46.7589C15.497 47.2646 14.9304 47.588 14.2937 47.6674L13.0718 47.8207C12.97 47.8337 12.8682 47.8399 12.7671 47.8399ZM7.41638 2.96899L12.844 45.3476L13.9021 45.2148L8.47448 2.83619L7.41638 2.96899Z" fill="black"/>
<path d="M3.48123 24.5003L5.16302 47.2168C5.33679 49.9611 7.61372 52.0984 10.3635 52.0984H24.6339C27.3844 52.0984 29.6607 49.9611 29.8345 47.2162L31.5132 24.4897C31.5132 24.4897 25.6008 21.6995 17.4972 24.4947C9.39356 27.2898 3.48123 24.5003 3.48123 24.5003Z" fill="#E9785A"/>
<path d="M17.5028 15.3783V15.5241H2.82404L2.81287 15.3783H17.5028Z" fill="#EDEDED"/>
<path d="M17.5028 16.7653H2.82403C2.17552 16.7653 1.63623 16.2657 1.58658 15.619L1.57541 15.4732C1.54935 15.1288 1.66726 14.7887 1.90246 14.5349C2.13704 14.2811 2.4672 14.1371 2.81286 14.1371H17.5022C18.1873 14.1371 18.7433 14.6931 18.7433 15.3783V15.5241C18.744 16.2092 18.1879 16.7653 17.5028 16.7653Z" fill="black"/>
<path d="M32.1921 15.3783L32.1809 15.5241H17.5028V15.3783H32.1921Z" fill="#EDEDED"/>
<path d="M32.1815 16.7653H17.5028C16.8176 16.7653 16.2616 16.2092 16.2616 15.5241V15.3783C16.2616 14.6931 16.8176 14.1371 17.5028 14.1371H32.1927C32.5384 14.1371 32.8685 14.2811 33.1031 14.5349C33.3383 14.7887 33.4562 15.1288 33.4301 15.4732L33.419 15.619C33.3693 16.2657 32.83 16.7653 32.1815 16.7653Z" fill="black"/>
<g opacity="0.1">
<path d="M28.2607 15.5241L25.9155 47.2076C25.7417 49.9518 23.4648 52.0891 20.7149 52.0891H10.3536C7.60317 52.0891 5.32686 49.9518 5.15309 47.2069L2.81286 15.5241H28.2607Z" fill="white"/>
</g>
<path d="M24.6352 53.2086H10.3648C7.03224 53.2086 4.25697 50.6034 4.04659 47.2771L1.70698 15.6066C1.68402 15.2957 1.79138 14.9898 2.00362 14.7614C2.21524 14.5336 2.5125 14.4039 2.82403 14.4039H32.1815C32.4931 14.4039 32.7903 14.5336 33.0019 14.762C33.2136 14.9898 33.3215 15.2963 33.2986 15.6066L30.9528 47.2895C30.743 50.6034 27.9677 53.2086 24.6352 53.2086ZM4.02984 16.6442L6.28133 47.1238C6.41785 49.2853 8.21135 50.9683 10.3648 50.9683H24.6352C26.7886 50.9683 28.5815 49.2846 28.718 47.1356L30.9751 16.6436L4.02984 16.6442Z" fill="black"/>
<path d="M33.6989 12.6731V15.5234H1.30111V12.6731C1.30111 11.0769 2.59503 9.78363 4.19677 9.78363H30.8094C32.4049 9.78363 33.6989 11.0769 33.6989 12.6731Z" fill="#EDEDED"/>
<path d="M27.6376 12.6688V15.5191H7.36238V12.6688C7.36238 11.0726 8.17225 9.7793 9.1745 9.7793H25.8292C26.8277 9.7793 27.6376 11.0726 27.6376 12.6688Z" fill="#FCFAFB"/>
<path d="M0.0599365 15.5241V12.6737C0.0599365 10.3962 1.91301 8.54248 4.19118 8.54248H30.8038C33.0845 8.54248 34.9407 10.3956 34.9407 12.6737V15.5241C34.9407 16.2092 34.3846 16.7653 33.6995 16.7653H1.30111C0.615983 16.7653 0.0599365 16.2092 0.0599365 15.5241ZM32.4577 12.6731C32.4577 11.7639 31.7155 11.0242 30.8032 11.0242H4.19118C3.28202 11.0248 2.54228 11.7646 2.54228 12.6731V14.2823H32.4577V12.6731Z" fill="black"/>
<path d="M21.5211 46.4715H22.1175C23.3239 46.4715 24.3013 45.4935 24.3013 44.2877V43.6913C24.3013 42.4849 23.3233 41.5074 22.1175 41.5074H21.5211C20.3147 41.5074 19.3372 42.4855 19.3372 43.6913V44.2877C19.3372 45.4935 20.3147 46.4715 21.5211 46.4715Z" fill="#DA654A"/>
<path d="M12.1539 38.9159H12.7503C13.9567 38.9159 14.9342 37.9378 14.9342 36.732V36.1356C14.9342 34.9292 13.9561 33.9518 12.7503 33.9518H12.1539C10.9475 33.9518 9.97009 34.9298 9.97009 36.1356V36.732C9.97009 37.9384 10.9481 38.9159 12.1539 38.9159Z" fill="#DA654A"/>
<path d="M22.7622 33.1754H23.3586C24.5651 33.1754 25.5425 32.1974 25.5425 30.9916V30.3952C25.5425 29.1888 24.5644 28.2114 23.3586 28.2114H22.7622C21.5558 28.2114 20.5784 29.1894 20.5784 30.3952V30.9916C20.5784 32.198 21.5558 33.1754 22.7622 33.1754Z" fill="#DA654A"/>
</svg>
