<svg width="37" height="56" viewBox="0 0 37 56" fill="none" xmlns="http://www.w3.org/2000/svg">
<path d="M37 10.3008H0L5.5861 55.2086H31.4139L37 10.3008Z" fill="#8CD5EF"/>
<path d="M5.07193 51.0746L5.5861 55.2086H31.4139L31.9282 51.0746H5.07193Z" fill="#0091B8"/>
<path d="M5.40284 20.2464L9.23764 51.0746H27.7624L31.597 20.2464H5.40284Z" fill="#5A3C3D"/>
<path d="M14.1479 38.6171C15.0041 38.6171 15.6981 37.9231 15.6981 37.067C15.6981 36.2109 15.0041 35.5168 14.1479 35.5168C13.2918 35.5168 12.5978 36.2109 12.5978 37.067C12.5978 37.9231 13.2918 38.6171 14.1479 38.6171Z" fill="#B3874F"/>
<path d="M22.554 29.1436C23.4101 29.1436 24.1042 28.4495 24.1042 27.5934C24.1042 26.7373 23.4101 26.0433 22.554 26.0433C21.6979 26.0433 21.0039 26.7373 21.0039 27.5934C21.0039 28.4495 21.6979 29.1436 22.554 29.1436Z" fill="#B3874F"/>
<path d="M18.4998 43.6553C19.356 43.6553 20.05 42.9612 20.05 42.1051C20.05 41.249 19.356 40.555 18.4998 40.555C17.6437 40.555 16.9497 41.249 16.9497 42.1051C16.9497 42.9612 17.6437 43.6553 18.4998 43.6553Z" fill="#B3874F"/>
<path d="M30.7179 0H34.8007L27.7209 20.2464H23.6376L30.7179 0Z" fill="#E94F3D"/>
<path d="M14.1577 22.0092C14.098 22.8288 13.3785 23.4506 12.5588 23.3909L8.96185 23.1288C8.14214 23.0691 7.52049 22.3496 7.58016 21.53L7.84229 17.9331C7.90197 17.1134 8.62151 16.4918 9.44106 16.5516L13.0381 16.8136C13.8577 16.8732 14.4795 17.5926 14.4198 18.4123L14.1577 22.0092Z" fill="white"/>
<path d="M29.6343 21.3403C29.807 22.1437 29.2909 22.9423 28.4873 23.115L24.9613 23.8727C24.158 24.0454 23.3592 23.5292 23.1867 22.7255L22.4291 19.1995C22.2566 18.3961 22.7725 17.5973 23.5762 17.4248L27.1022 16.6672C27.9056 16.4945 28.7042 17.0108 28.8769 17.8141L29.6343 21.3403Z" fill="white"/>
</svg>
