<svg width="28" height="55" viewBox="0 0 28 55" fill="none" xmlns="http://www.w3.org/2000/svg">
<path d="M23.1997 8.57419C23.1997 6.94828 21.8807 5.62929 20.2539 5.62929H15.7726V4.05148H17.4197C17.6665 4.05148 17.7713 3.91447 17.7713 3.6642C17.7713 1.75679 16.0821 0.208618 14.0004 0.208618C11.917 0.208618 10.2294 1.75679 10.2294 3.6642C10.2294 3.91447 10.3325 4.05148 10.5794 4.05148H12.2264V5.62929H7.74528C6.11853 5.62929 4.80112 6.94828 4.80112 8.57419V12.7723H23.1996L23.1997 8.57419Z" fill="black"/>
<path d="M27.2032 22.1464C27.2032 20.9881 26.6925 19.889 25.8064 19.1432L24.1729 17.7675C23.4736 17.179 23.0019 16.3648 22.8379 15.4659V14.5986H5.1614V15.4659C4.99908 16.3648 4.52732 17.179 3.82722 17.7675L2.19372 19.1432C1.30757 19.8889 0.79689 20.9881 0.79689 22.1464V26.714C0.79689 27.8199 1.26359 28.8751 2.08203 29.6192L1.89271 29.4468C2.71115 30.1908 3.17795 31.2461 3.17795 32.3519V36.9719C3.17795 37.7658 2.93611 38.5411 2.48629 39.1956L1.48687 40.6499C1.03715 41.3044 0.796995 42.0797 0.796995 42.8737V49.1541C0.796995 50.5425 1.52916 51.8277 2.72475 52.5345L4.63395 53.6624C5.23934 54.0201 5.92932 54.2086 6.63111 54.2086H14.0006H21.3685C22.0703 54.2086 22.7602 54.0201 23.3656 53.6624L25.2757 52.5345C26.4713 51.8277 27.2034 50.5424 27.2034 49.1541V42.8737C27.2034 42.0797 26.9633 41.3044 26.5134 40.6499L25.514 39.1956C25.0642 38.5412 24.8224 37.7658 24.8224 36.9719V32.3519C24.8224 31.246 25.2892 30.1908 26.1076 29.4468L25.918 29.6192C26.7364 28.8751 27.2032 27.8199 27.2032 26.714V22.1464ZM11.1679 41.1503L12.7017 33.8113H10.4018L11.7158 26.1433H16.9748L14.8931 31.0727H17.9607L11.1679 41.1503Z" fill="black"/>
</svg>
