<svg width="32" height="32" viewBox="0 0 32 32" fill="none" xmlns="http://www.w3.org/2000/svg">
<path d="M16 0C7.178 0 0 7.178 0 16C0 24.822 7.178 32 16 32C24.822 32 32 24.822 32 16C32 7.178 24.822 0 16 0ZM16 31C7.729 31 1 24.271 1 16C1 7.729 7.729 1 16 1C24.271 1 31 7.729 31 16C31 24.271 24.271 31 16 31Z" fill="#111B50"/>
<path d="M22.634 10.165L14.088 19.375C13.898 19.583 13.546 19.581 13.356 19.375L9.367 15.076C9.178 14.873 8.86 14.861 8.66 15.05C8.457 15.238 8.445 15.554 8.634 15.756L12.622 20.055C12.905 20.361 13.307 20.535 13.723 20.535C14.138 20.535 14.539 20.36 14.822 20.055L23.367 10.845C23.555 10.643 23.544 10.326 23.341 10.139C23.14 9.951 22.822 9.961 22.634 10.165Z" fill="#111B50"/>
</svg>
