<svg width="38" height="39" viewBox="0 0 38 39" fill="none" xmlns="http://www.w3.org/2000/svg">
<path d="M36.8125 18.0199C36.8125 25.8907 30.4327 32.2699 22.5625 32.2699C16.1078 32.2699 10.6584 27.9771 8.90625 22.0913L8.76197 21.5824C8.46866 20.4436 8.3125 19.249 8.3125 18.0199V12.0824H36.2217C36.5489 12.0848 36.8125 12.3478 36.8125 12.6762V18.0199Z" fill="#F76D57"/>
<path d="M29.6875 18.2657L31.4688 20.047V23.9574H27.9062V20.047L29.6875 18.2657Z" fill="#F9EBB2"/>
<path d="M36.8125 10.8949H7.71875H7.125H2.375C1.06341 10.8949 0 11.9583 0 13.2699V18.0199L0.00534375 18.0211H0C0.00059375 21.9547 3.19022 25.1449 7.125 25.1449H8.86944C11.4439 30.0826 16.6078 33.4574 22.5625 33.4574C31.0882 33.4574 38 26.5444 38 18.0199V12.0824C38 11.4263 37.468 10.8949 36.8125 10.8949ZM7.543 21.5824H7.125C5.15791 21.5824 3.56309 19.9876 3.5625 18.0211V14.4574H7.125V18.0199C7.125 19.2466 7.27225 20.4377 7.543 21.5824ZM7.125 23.9574C3.84631 23.9574 1.18809 21.2992 1.1875 18.0211V13.2699C1.1875 12.6138 1.7195 12.0824 2.375 12.0824H7.125V13.2699H2.96875C2.64041 13.2699 2.375 13.5353 2.375 13.8637V18.0199L2.38094 18.0211H2.375C2.37559 20.6431 4.50181 22.7699 7.125 22.7699H7.87313C8.00375 23.1725 8.14863 23.5691 8.31013 23.9574H7.125ZM36.8125 18.0199C36.8125 25.8907 30.4327 32.2699 22.5625 32.2699C16.1078 32.2699 10.6584 27.9771 8.90625 22.0913L8.76197 21.5824C8.46866 20.4436 8.3125 19.249 8.3125 18.0199V12.0824H29.0938V17.1804L26.8927 19.3814C26.7811 19.493 26.7188 19.6433 26.7188 19.8012V24.5512C26.7188 24.8795 26.9842 25.1449 27.3125 25.1449H32.0625C32.3908 25.1449 32.6562 24.8795 32.6562 24.5512V19.8012C32.6562 19.6433 32.5939 19.4924 32.4823 19.3814L30.2812 17.1804V12.0824H36.2217C36.5489 12.0848 36.8125 12.3478 36.8125 12.6762V18.0199ZM29.6875 18.2658L31.4688 20.047V23.9574H27.9062V20.047L29.6875 18.2658Z" fill="#394240"/>
<path d="M22.5625 5.84807C22.5625 6.96847 21.9539 7.41913 21.9361 7.43219C21.663 7.61447 21.5893 7.982 21.7716 8.25572C21.8856 8.42732 22.0744 8.51994 22.2662 8.51994C22.379 8.51994 22.4936 8.48729 22.5952 8.42019C22.6421 8.38872 23.75 7.6305 23.75 5.84807C23.75 4.89807 23.3492 4.39991 23.0268 3.99854C22.7573 3.66188 22.5625 3.41963 22.5625 2.87932C22.5625 1.78563 23.1663 1.31241 23.2043 1.28332C23.468 1.09569 23.5327 0.729942 23.3468 0.462161C23.1598 0.192004 22.7899 0.126098 22.5203 0.312536C22.474 0.345192 21.375 1.12954 21.375 2.87932C21.375 3.83704 21.7782 4.33935 22.1017 4.74191C22.379 5.08747 22.5625 5.31607 22.5625 5.84807Z" fill="#394240"/>
<path d="M29.6875 5.84807C29.6875 6.96847 29.0789 7.41913 29.0611 7.43219C28.788 7.61447 28.7143 7.982 28.8966 8.25572C29.0106 8.42732 29.1994 8.51994 29.3912 8.51994C29.504 8.51994 29.6186 8.48729 29.7202 8.42019C29.7671 8.38872 30.875 7.6305 30.875 5.84807C30.875 4.89807 30.4742 4.39991 30.1518 3.99854C29.8823 3.66188 29.6875 3.41963 29.6875 2.87932C29.6875 1.78563 30.2913 1.31241 30.3293 1.28332C30.593 1.09569 30.6577 0.729942 30.4718 0.462161C30.2848 0.192004 29.9149 0.126098 29.6453 0.312536C29.599 0.345192 28.5 1.12954 28.5 2.87932C28.5 3.83704 28.9032 4.33935 29.2267 4.74191C29.504 5.08747 29.6875 5.31607 29.6875 5.84807Z" fill="#394240"/>
<path d="M15.4375 5.84807C15.4375 6.96847 14.8289 7.41913 14.8111 7.43219C14.538 7.61447 14.4643 7.982 14.6466 8.25572C14.7606 8.42732 14.9494 8.51994 15.1412 8.51994C15.254 8.51994 15.3686 8.48729 15.4702 8.42019C15.5171 8.38872 16.625 7.6305 16.625 5.84807C16.625 4.89807 16.2242 4.39991 15.9018 3.99854C15.6322 3.66188 15.4375 3.41963 15.4375 2.87932C15.4375 1.78563 16.0413 1.31241 16.0793 1.28332C16.343 1.09569 16.4077 0.729942 16.2218 0.462161C16.0348 0.192004 15.6649 0.126098 15.3953 0.312536C15.349 0.345192 14.25 1.12954 14.25 2.87932C14.25 3.83704 14.6532 4.33935 14.9768 4.74191C15.254 5.08747 15.4375 5.31607 15.4375 5.84807Z" fill="#394240"/>
<path d="M37.4062 34.6449H7.71875C7.39041 34.6449 7.125 34.9103 7.125 35.2387V35.8336C7.125 37.144 8.18841 38.2086 9.5 38.2086V38.2074H35.625V38.2086C36.9366 38.2086 38 37.144 38 35.8336V35.2387C38 34.9103 37.7346 34.6449 37.4062 34.6449ZM36.8125 35.8336C36.8125 36.4891 36.2805 37.0211 35.625 37.0211V37.0199H9.5V37.0211C8.8445 37.0211 8.3125 36.4891 8.3125 35.8336V35.8324H36.8125V35.8336Z" fill="#394240"/>
<path d="M7.125 22.7699C4.50181 22.7699 2.37559 20.6431 2.375 18.0211H2.38094L2.375 18.0199V13.8637C2.375 13.5353 2.64041 13.2699 2.96875 13.2699H7.125V12.0824H2.375C1.7195 12.0824 1.1875 12.6138 1.1875 13.2699V18.0211C1.18809 21.2992 3.84631 23.9574 7.125 23.9574H8.31012C8.14862 23.5691 8.00316 23.1725 7.87312 22.7699H7.125Z" fill="#B4CCB9"/>
<path d="M8.3125 35.8324V35.8336C8.3125 36.4891 8.8445 37.0211 9.5 37.0211V37.0199H35.625V37.0211C36.2805 37.0211 36.8125 36.4891 36.8125 35.8336V35.8324H8.3125Z" fill="#B4CCB9"/>
</svg>
