<svg width="36" height="51" viewBox="0 0 36 51" fill="none" xmlns="http://www.w3.org/2000/svg">
<path d="M30.5946 47.4286H5.99957L1.31766 4.45312H35.2771L30.5946 47.4286Z" fill="white"/>
<path d="M30.5946 47.8534H5.99956C5.8948 47.8535 5.79372 47.8148 5.71573 47.7449C5.63774 47.6749 5.58834 47.5787 5.57703 47.4745L0.894544 4.499C0.888099 4.43968 0.894226 4.37966 0.912525 4.32286C0.930824 4.26606 0.960886 4.21375 1.00075 4.16935C1.04061 4.12494 1.08939 4.08943 1.14389 4.06513C1.1984 4.04083 1.25741 4.02829 1.31708 4.02832H35.2754C35.3351 4.02829 35.3941 4.04083 35.4486 4.06513C35.5031 4.08943 35.5519 4.12494 35.5917 4.16935C35.6316 4.21375 35.6617 4.26606 35.68 4.32286C35.6983 4.37966 35.7044 4.43968 35.6979 4.499L31.0172 47.4751C31.0057 47.5791 30.9563 47.6753 30.8783 47.7451C30.8003 47.8149 30.6993 47.8535 30.5946 47.8534ZM6.38075 47.0038H30.214L34.8019 4.87736H1.79117L6.38075 47.0038Z" fill="#66A9F7"/>
<path d="M1.29272 4.28544C1.29272 5.29658 3.08279 6.26629 6.26912 6.98127C9.45546 7.69625 13.7771 8.09792 18.2832 8.09792C22.7894 8.09792 27.111 7.69625 30.2973 6.98127C33.4836 6.26629 35.2737 5.29658 35.2737 4.28544C35.2737 3.27431 33.4836 2.30459 30.2973 1.58961C27.111 0.874632 22.7894 0.472961 18.2832 0.472961C13.7771 0.472961 9.45546 0.874632 6.26912 1.58961C3.08279 2.30459 1.29272 3.27431 1.29272 4.28544Z" fill="white"/>
<path d="M18.2832 8.52273C13.7146 8.52273 9.41499 8.12228 6.17628 7.39558C2.6538 6.60261 0.86792 5.55872 0.86792 4.28544C0.86792 3.01216 2.6538 1.96318 6.17628 1.17531C9.41442 0.44804 13.7146 0.0481567 18.2832 0.0481567C22.8518 0.0481567 27.1514 0.448606 30.3901 1.17531C33.9126 1.96827 35.6985 3.01216 35.6985 4.28544C35.6985 5.55872 33.9126 6.60771 30.3901 7.39558C27.1514 8.12228 22.8518 8.52273 18.2832 8.52273ZM18.2832 0.897766C13.7752 0.897766 9.54187 1.29085 6.36206 2.00396C4.85995 2.3438 3.63765 2.74652 2.82712 3.17642C2.11175 3.55591 1.71753 3.94956 1.71753 4.28488C1.71753 4.62019 2.11401 5.01384 2.82712 5.39333C3.63765 5.82324 4.86052 6.22878 6.36206 6.56579C9.5413 7.27947 13.7752 7.67199 18.2832 7.67199C22.7912 7.67199 27.0246 7.2789 30.2044 6.56579C31.7065 6.22595 32.9288 5.82324 33.7393 5.39333C34.4547 5.01384 34.8489 4.62019 34.8489 4.28488C34.8489 3.94956 34.4524 3.55591 33.7393 3.17642C32.9288 2.74652 31.7059 2.34097 30.2044 2.00396C27.0246 1.29085 22.7912 0.897766 18.2832 0.897766Z" fill="#66A9F7"/>
<path d="M6.01202 47.3261C6.01202 48.0591 7.30703 48.7622 9.61215 49.2806C11.9173 49.7989 15.0437 50.0901 18.3036 50.0901C21.5635 50.0901 24.6899 49.7989 26.9951 49.2806C29.3002 48.7622 30.5952 48.0591 30.5952 47.3261C30.5952 46.593 29.3002 45.89 26.9951 45.3716C24.6899 44.8532 21.5635 44.562 18.3036 44.562C15.0437 44.562 11.9173 44.8532 9.61215 45.3716C7.30703 45.89 6.01202 46.593 6.01202 47.3261Z" fill="white"/>
<path d="M18.3036 50.515C14.9901 50.515 11.8704 50.2238 9.51921 49.6948C6.91034 49.108 5.58778 48.3111 5.58778 47.3261C5.58778 46.3411 6.90978 45.5425 9.51864 44.9568C11.8698 44.4284 14.9896 44.1367 18.303 44.1367C21.6165 44.1367 24.7363 44.4278 27.0874 44.9568C29.6963 45.5436 31.0194 46.3405 31.0194 47.3255C31.0194 48.3105 29.6969 49.1108 27.088 49.6948C24.7368 50.2238 21.6171 50.515 18.3036 50.515ZM18.3036 44.9868C15.0507 44.9868 11.9972 45.27 9.70556 45.786C8.62939 46.0279 7.75485 46.3185 7.17769 46.6254C6.7138 46.8718 6.43739 47.1352 6.43739 47.3261C6.43739 47.6048 7.12048 48.285 9.70612 48.8661C11.9978 49.3816 15.0513 49.6653 18.3042 49.6653C21.557 49.6653 24.6105 49.3821 26.9022 48.8661C27.9784 48.6243 28.8529 48.3337 29.4301 48.0267C29.894 47.7803 30.1704 47.517 30.1704 47.3261C30.1704 47.0474 29.4873 46.3672 26.9016 45.786C24.6094 45.2706 21.5559 44.9868 18.3036 44.9868Z" fill="#66A9F7"/>
<path d="M5.25758 41.2265L3.43771 23.8729L5.25758 41.2265Z" fill="white"/>
<path d="M3.01648 23.9167L3.86145 23.8281L5.68238 41.1821L4.83736 41.2707L3.01648 23.9167Z" fill="#66A9F7"/>
<path d="M31.0274 17.6917C30.9786 16.4456 25.2732 15.4465 18.2832 15.4465C11.2932 15.4465 5.58779 16.4479 5.53908 17.6917C5.5376 17.7709 5.55714 17.8491 5.59572 17.9183H5.54531L8.27765 45.5799H8.29521C8.46513 46.6152 12.8621 47.449 18.2906 47.449C23.719 47.449 28.1189 46.6169 28.286 45.5799H28.2933L31.0245 17.9183C31.0274 17.8452 31.0313 17.7682 31.0274 17.6917Z" fill="#DFEDFF"/>
<path d="M5.62801 18.9055C5.59288 18.9055 5.55899 18.8925 5.53293 18.869C5.50686 18.8454 5.49048 18.813 5.48697 18.7781L5.38785 17.7772H5.40258C5.39876 17.7472 5.39743 17.7169 5.39861 17.6866C5.40711 17.4753 5.53568 17.2725 5.7815 17.0839C5.79638 17.0728 5.81331 17.0647 5.83132 17.06C5.84933 17.0554 5.86808 17.0544 5.88649 17.057C5.9049 17.0597 5.92261 17.0659 5.93861 17.0754C5.95461 17.0848 5.96859 17.0974 5.97974 17.1123C5.9909 17.1271 5.99902 17.1441 6.00363 17.1621C6.00825 17.1801 6.00927 17.1988 6.00664 17.2172C6.00401 17.2357 5.99778 17.2534 5.98831 17.2694C5.97883 17.2854 5.9663 17.2993 5.95142 17.3105C5.77584 17.4453 5.68408 17.5761 5.67898 17.6996C5.67793 17.7541 5.69142 17.8079 5.71806 17.8554L5.82625 18.0627H5.69824L5.76621 18.7526C5.76984 18.7899 5.75853 18.8271 5.73474 18.8561C5.71096 18.8851 5.67664 18.9035 5.63933 18.9072L5.62801 18.9055ZM8.0222 43.1449C7.98708 43.1449 7.95319 43.1319 7.92712 43.1083C7.90106 43.0848 7.88468 43.0524 7.88117 43.0174L7.71125 41.2859C7.70757 41.2484 7.71896 41.2109 7.74291 41.1817C7.76686 41.1526 7.80142 41.1341 7.83897 41.1304C7.87653 41.1267 7.91401 41.1381 7.94316 41.1621C7.97232 41.186 7.99077 41.2206 7.99445 41.2582L8.16437 42.9897C8.16801 43.027 8.15669 43.0642 8.13291 43.0932C8.10912 43.1222 8.07481 43.1406 8.0375 43.1443L8.0222 43.1449ZM7.68236 39.6818C7.64723 39.6819 7.61334 39.6689 7.58728 39.6453C7.56122 39.6218 7.54484 39.5894 7.54133 39.5544L7.3714 37.8229C7.36958 37.8043 7.37144 37.7855 7.37687 37.7677C7.3823 37.7498 7.39121 37.7331 7.40307 37.7187C7.41493 37.7043 7.42951 37.6923 7.446 37.6835C7.46248 37.6747 7.48053 37.6692 7.49913 37.6674C7.51772 37.6656 7.5365 37.6675 7.55437 37.6729C7.57225 37.6783 7.58888 37.6872 7.60332 37.6991C7.61776 37.7109 7.62972 37.7255 7.63852 37.742C7.64732 37.7585 7.65278 37.7766 7.65461 37.7951L7.82453 39.5266C7.82816 39.564 7.81685 39.6012 7.79306 39.6302C7.76928 39.6592 7.73496 39.6776 7.69765 39.6813L7.68236 39.6818ZM7.34252 36.2188C7.30739 36.2189 7.2735 36.2059 7.24744 36.1823C7.22137 36.1587 7.20499 36.1264 7.20148 36.0914L7.03156 34.3599C7.02788 34.3223 7.03927 34.2849 7.06322 34.2557C7.08717 34.2265 7.12173 34.2081 7.15928 34.2044C7.19684 34.2007 7.23432 34.2121 7.26348 34.2361C7.29263 34.26 7.31108 34.2946 7.31476 34.3321L7.48469 36.0636C7.48832 36.101 7.477 36.1382 7.45322 36.1672C7.42943 36.1962 7.39512 36.2146 7.35781 36.2183L7.34252 36.2188ZM7.00267 32.7558C6.96754 32.7559 6.93366 32.7428 6.90759 32.7193C6.88153 32.6957 6.86515 32.6633 6.86164 32.6284L6.69172 30.8969C6.68804 30.8593 6.69942 30.8219 6.72338 30.7927C6.74733 30.7635 6.78189 30.7451 6.81944 30.7414C6.857 30.7377 6.89447 30.7491 6.92363 30.7731C6.95279 30.797 6.97124 30.8316 6.97492 30.8691L7.14484 32.6006C7.14848 32.638 7.13716 32.6752 7.11338 32.7042C7.08959 32.7332 7.05528 32.7515 7.01797 32.7553L7.00267 32.7558ZM6.66283 29.2928C6.6277 29.2929 6.59381 29.2798 6.56775 29.2563C6.54169 29.2327 6.52531 29.2003 6.52179 29.1654L6.35187 27.4339C6.34819 27.3963 6.35958 27.3588 6.38353 27.3297C6.40749 27.3005 6.44204 27.2821 6.4796 27.2784C6.51715 27.2747 6.55463 27.2861 6.58379 27.3101C6.61295 27.334 6.6314 27.3686 6.63508 27.4061L6.805 29.1376C6.80863 29.1749 6.79732 29.2122 6.77353 29.2412C6.74975 29.2702 6.71543 29.2885 6.67812 29.2923L6.66283 29.2928ZM6.32299 25.8298C6.28786 25.8298 6.25397 25.8168 6.22791 25.7933C6.20184 25.7697 6.18546 25.7373 6.18195 25.7024L6.01203 23.9709C6.01021 23.9523 6.01206 23.9335 6.0175 23.9156C6.02293 23.8977 6.03183 23.8811 6.04369 23.8667C6.05555 23.8522 6.07014 23.8403 6.08662 23.8315C6.1031 23.8227 6.12116 23.8172 6.13975 23.8154C6.17731 23.8117 6.21479 23.8231 6.24394 23.8471C6.25838 23.8589 6.27034 23.8735 6.27914 23.89C6.28794 23.9065 6.29341 23.9245 6.29523 23.9431L6.46515 25.6746C6.46729 25.6942 6.4653 25.7141 6.45932 25.7328C6.45335 25.7516 6.44351 25.769 6.43045 25.7837C6.41738 25.7985 6.40138 25.8104 6.38346 25.8186C6.36554 25.8268 6.3461 25.8312 6.32638 25.8315L6.32299 25.8298ZM5.98314 22.3668C5.94801 22.3668 5.91413 22.3538 5.88806 22.3303C5.862 22.3067 5.84562 22.2743 5.84211 22.2394L5.67218 20.5079C5.6685 20.4703 5.67989 20.4328 5.70385 20.4037C5.7278 20.3745 5.76235 20.3561 5.79991 20.3524C5.83746 20.3487 5.87494 20.3601 5.9041 20.384C5.93326 20.408 5.95171 20.4426 5.95539 20.4801L6.12531 22.2116C6.12895 22.2489 6.11763 22.2862 6.09384 22.3152C6.07006 22.3441 6.03575 22.3625 5.99843 22.3662L5.98314 22.3668ZM8.87011 46.3099C8.84658 46.31 8.8234 46.3042 8.80271 46.2929C8.4708 46.1134 8.26802 45.9259 8.18703 45.722H8.14795L8.05279 44.7495C8.04911 44.7119 8.0605 44.6744 8.08445 44.6453C8.10841 44.6161 8.14296 44.5977 8.18052 44.594C8.21807 44.5903 8.25555 44.6017 8.28471 44.6257C8.31386 44.6496 8.33231 44.6842 8.33599 44.7217L8.40679 45.4394H8.41642L8.43568 45.5583C8.4606 45.7118 8.63449 45.88 8.93865 46.0443C8.9664 46.0593 8.98835 46.0831 9.00104 46.1119C9.01372 46.1408 9.0164 46.1731 9.00866 46.2037C9.00092 46.2342 8.9832 46.2613 8.95831 46.2807C8.93342 46.3 8.90278 46.3105 8.87125 46.3105L8.87011 46.3099ZM18.29 47.5894C17.9995 47.5894 17.7066 47.5894 17.4183 47.5821C17.3997 47.5818 17.3814 47.5778 17.3643 47.5704C17.3472 47.563 17.3318 47.5524 17.3189 47.539C17.3059 47.5256 17.2957 47.5099 17.2889 47.4926C17.2821 47.4753 17.2787 47.4568 17.279 47.4382C17.2793 47.4196 17.2832 47.4013 17.2906 47.3842C17.298 47.3671 17.3087 47.3517 17.3221 47.3387C17.3354 47.3258 17.3512 47.3156 17.3685 47.3088C17.3858 47.3019 17.4043 47.2986 17.4228 47.2989C17.9955 47.3085 18.5823 47.3085 19.1578 47.2989C19.1763 47.2986 19.1948 47.3019 19.2121 47.3088C19.2294 47.3156 19.2452 47.3258 19.2585 47.3387C19.2719 47.3517 19.2826 47.3671 19.29 47.3842C19.2974 47.4013 19.3013 47.4196 19.3016 47.4382C19.3019 47.4568 19.2985 47.4753 19.2917 47.4926C19.2849 47.5099 19.2747 47.5256 19.2617 47.539C19.2488 47.5524 19.2334 47.563 19.2163 47.5704C19.1992 47.5778 19.1809 47.5818 19.1623 47.5821C18.8734 47.5872 18.58 47.5894 18.29 47.5894ZM15.6845 47.5232H15.6778C15.0808 47.492 14.4951 47.4501 13.9372 47.398C13.8996 47.3945 13.865 47.3763 13.8409 47.3473C13.8168 47.3183 13.8052 47.2809 13.8086 47.2434C13.8121 47.2058 13.8303 47.1712 13.8593 47.1471C13.8883 47.1229 13.9257 47.1113 13.9632 47.1148C14.5172 47.1663 15.0961 47.2083 15.6925 47.2388C15.73 47.2398 15.7657 47.2557 15.7915 47.2829C15.8174 47.3102 15.8314 47.3466 15.8304 47.3841C15.8294 47.4217 15.8136 47.4573 15.7863 47.4832C15.7591 47.509 15.7227 47.523 15.6851 47.522L15.6845 47.5232ZM20.9006 47.5232C20.863 47.5241 20.8266 47.5102 20.7994 47.4843C20.7721 47.4584 20.7563 47.4228 20.7553 47.3853C20.7543 47.3477 20.7683 47.3113 20.7942 47.284C20.82 47.2568 20.8557 47.2409 20.8932 47.24C21.4862 47.2094 22.0685 47.1675 22.6225 47.1159C22.66 47.1125 22.6974 47.1241 22.7264 47.1482C22.7554 47.1723 22.7736 47.2069 22.7771 47.2445C22.7805 47.2821 22.7689 47.3194 22.7448 47.3484C22.7207 47.3774 22.6861 47.3957 22.6485 47.3991C22.0906 47.4512 21.5049 47.4932 20.9079 47.5243L20.9006 47.5232ZM12.2227 47.1941H12.2017C11.5651 47.1001 10.9856 46.9913 10.4804 46.8707C10.4617 46.8669 10.444 46.8595 10.4283 46.8488C10.4126 46.838 10.3992 46.8242 10.3889 46.8082C10.3786 46.7922 10.3717 46.7742 10.3685 46.7554C10.3653 46.7367 10.366 46.7175 10.3704 46.6989C10.3748 46.6804 10.3829 46.663 10.3942 46.6477C10.4055 46.6324 10.4198 46.6195 10.4362 46.6098C10.4526 46.6001 10.4708 46.5939 10.4897 46.5914C10.5086 46.5889 10.5278 46.5903 10.5461 46.5954C11.0434 46.7138 11.6144 46.822 12.2453 46.9137C12.2829 46.9164 12.3178 46.9339 12.3425 46.9624C12.3671 46.9909 12.3794 47.028 12.3767 47.0655C12.374 47.1031 12.3565 47.138 12.3281 47.1627C12.2996 47.1873 12.2625 47.1996 12.2249 47.1969L12.2227 47.1941ZM24.3625 47.1941C24.3249 47.1968 24.2878 47.1845 24.2593 47.1598C24.2309 47.1352 24.2134 47.1002 24.2107 47.0627C24.208 47.0251 24.2203 46.988 24.2449 46.9596C24.2696 46.9311 24.3045 46.9136 24.3421 46.9109C24.9708 46.818 25.5417 46.7109 26.0413 46.5926C26.0596 46.5875 26.0788 46.5861 26.0977 46.5886C26.1166 46.5911 26.1348 46.5973 26.1512 46.607C26.1676 46.6166 26.1819 46.6295 26.1932 46.6448C26.2045 46.6601 26.2126 46.6776 26.217 46.6961C26.2214 46.7146 26.2221 46.7338 26.2189 46.7526C26.2157 46.7714 26.2088 46.7893 26.1985 46.8054C26.1882 46.8214 26.1748 46.8352 26.1591 46.8459C26.1434 46.8567 26.1257 46.8641 26.107 46.8678C25.6018 46.9885 25.0229 47.0944 24.3857 47.1913L24.3625 47.1941ZM27.7099 46.3099C27.6784 46.31 27.6477 46.2995 27.6229 46.2801C27.598 46.2608 27.5802 46.2337 27.5725 46.2031C27.5648 46.1725 27.5674 46.1402 27.5801 46.1114C27.5928 46.0825 27.6148 46.0587 27.6425 46.0437C27.9467 45.8795 28.1211 45.7112 28.1455 45.5577L28.1642 45.4416L28.2355 44.7212C28.2392 44.6836 28.2577 44.6491 28.2868 44.6251C28.316 44.6011 28.3535 44.5898 28.391 44.5934C28.4286 44.5971 28.4631 44.6156 28.4871 44.6447C28.511 44.6739 28.5224 44.7114 28.5187 44.7489L28.4219 45.722H28.393C28.3126 45.9259 28.1098 46.114 27.7773 46.2929C27.7566 46.3041 27.7335 46.31 27.7099 46.3099ZM28.5448 43.1726H28.5306C28.4933 43.1689 28.459 43.1505 28.4352 43.1215C28.4114 43.0925 28.4001 43.0553 28.4038 43.018L28.5737 41.3142C28.5774 41.2767 28.5958 41.2421 28.625 41.2182C28.6541 41.1942 28.6916 41.1828 28.7292 41.1865C28.7667 41.1902 28.8013 41.2086 28.8252 41.2378C28.8492 41.267 28.8606 41.3044 28.8569 41.342L28.687 43.0457C28.6833 43.0808 28.6667 43.1132 28.6404 43.1367C28.6141 43.1601 28.58 43.1729 28.5448 43.1726ZM28.8812 39.7651H28.8671C28.8298 39.7614 28.7955 39.743 28.7717 39.714C28.7479 39.685 28.7366 39.6478 28.7402 39.6105L28.9101 37.9067C28.9138 37.8692 28.9323 37.8346 28.9614 37.8107C28.9906 37.7867 29.0281 37.7753 29.0656 37.779C29.1032 37.7827 29.1377 37.8011 29.1617 37.8303C29.1856 37.8594 29.197 37.8969 29.1933 37.9345L29.0234 39.6382C29.0198 39.6733 29.0032 39.7057 28.9769 39.7292C28.9506 39.7526 28.9165 39.7654 28.8812 39.7651ZM29.2149 36.357H29.2007C29.1634 36.3533 29.1291 36.3349 29.1053 36.306C29.0815 36.277 29.0702 36.2397 29.0738 36.2024L29.2437 34.4987C29.2474 34.4611 29.2659 34.4266 29.295 34.4026C29.3242 34.3786 29.3617 34.3673 29.3992 34.3709C29.4368 34.3746 29.4713 34.3931 29.4953 34.4222C29.5192 34.4514 29.5306 34.4889 29.527 34.5264L29.357 36.2302C29.3534 36.2652 29.3368 36.2976 29.3105 36.3211C29.2842 36.3446 29.2501 36.3574 29.2149 36.357ZM29.5547 32.9495H29.5405C29.5032 32.9458 29.4689 32.9274 29.4451 32.8985C29.4214 32.8695 29.41 32.8322 29.4137 32.7949L29.5836 31.0912C29.5873 31.0536 29.6057 31.0191 29.6349 30.9951C29.664 30.9711 29.7015 30.9598 29.7391 30.9634C29.7766 30.9671 29.8112 30.9856 29.8351 31.0147C29.8591 31.0439 29.8705 31.0814 29.8668 31.1189L29.6969 32.8227C29.6932 32.8577 29.6766 32.8901 29.6503 32.9136C29.624 32.9371 29.5899 32.9499 29.5547 32.9495ZM29.8912 29.542H29.877C29.8397 29.5383 29.8054 29.5199 29.7816 29.491C29.7578 29.462 29.7465 29.4247 29.7501 29.3874L29.92 27.6837C29.9237 27.6461 29.9422 27.6116 29.9713 27.5876C30.0005 27.5636 30.038 27.5523 30.0755 27.5559C30.1131 27.5596 30.1476 27.5781 30.1716 27.6072C30.1955 27.6364 30.2069 27.6739 30.2032 27.7114L30.0333 29.4152C30.0295 29.4502 30.0128 29.4826 29.9864 29.5059C29.96 29.5293 29.9258 29.542 29.8906 29.5415L29.8912 29.542ZM30.2276 26.1345H30.2134C30.1761 26.1308 30.1418 26.1124 30.118 26.0835C30.0942 26.0545 30.0829 26.0172 30.0866 25.9799L30.2565 24.2762C30.2602 24.2386 30.2786 24.2041 30.3078 24.1801C30.3369 24.1561 30.3744 24.1448 30.412 24.1484C30.4495 24.1521 30.4841 24.1706 30.508 24.1997C30.532 24.2289 30.5434 24.2664 30.5397 24.3039L30.3698 26.0077C30.366 26.0427 30.3492 26.0751 30.3228 26.0984C30.2964 26.1218 30.2623 26.1345 30.227 26.134L30.2276 26.1345ZM30.564 22.727H30.5499C30.5126 22.7233 30.4783 22.7049 30.4545 22.676C30.4307 22.647 30.4194 22.6097 30.423 22.5724L30.5929 20.8687C30.5966 20.8311 30.6151 20.7966 30.6442 20.7726C30.6734 20.7486 30.7109 20.7373 30.7484 20.7409C30.786 20.7446 30.8205 20.7631 30.8445 20.7922C30.8684 20.8214 30.8798 20.8589 30.8761 20.8964L30.7062 22.6002C30.7024 22.6352 30.6857 22.6676 30.6593 22.6909C30.6329 22.7143 30.5987 22.727 30.5635 22.7265L30.564 22.727ZM30.8999 19.3178H30.8858C30.8484 19.3141 30.8141 19.2957 30.7904 19.2668C30.7666 19.2378 30.7553 19.2005 30.7589 19.1632L30.8829 17.9018C30.8863 17.8452 30.8875 17.7993 30.8875 17.7551V17.694C30.8847 17.6437 30.8701 17.5948 30.845 17.5512C30.8355 17.5349 30.8295 17.5168 30.8271 17.498C30.8248 17.4793 30.8262 17.4602 30.8313 17.4421C30.8364 17.4239 30.8451 17.4069 30.8569 17.3921C30.8687 17.3773 30.8833 17.3651 30.8999 17.356C30.9165 17.347 30.9347 17.3414 30.9535 17.3395C30.9723 17.3376 30.9913 17.3395 31.0094 17.3451C31.0274 17.3507 31.0442 17.3598 31.0587 17.372C31.0731 17.3841 31.085 17.399 31.0936 17.4159C31.1397 17.4978 31.1661 17.5893 31.1707 17.6832V17.7551C31.1707 17.805 31.1707 17.8571 31.165 17.925L31.0404 19.1893C31.0371 19.2243 31.021 19.2569 30.995 19.2807C30.969 19.3045 30.9351 19.3177 30.8999 19.3178ZM29.5196 16.7803C29.5046 16.7802 29.4897 16.7778 29.4754 16.773C28.9366 16.6012 28.3881 16.4613 27.8328 16.3538C27.796 16.3463 27.7637 16.3245 27.743 16.2932C27.7223 16.2618 27.7149 16.2236 27.7224 16.1867C27.7299 16.1499 27.7517 16.1176 27.7831 16.0969C27.8144 16.0762 27.8527 16.0688 27.8895 16.0763C28.4559 16.1861 29.0153 16.3291 29.5649 16.5045C29.5967 16.5152 29.6236 16.5368 29.641 16.5654C29.6583 16.5941 29.665 16.628 29.6597 16.6611C29.6544 16.6942 29.6375 16.7244 29.612 16.7462C29.5866 16.768 29.5542 16.7801 29.5207 16.7803H29.5196ZM7.43427 16.662C7.40024 16.6618 7.36739 16.6494 7.34174 16.6271C7.31609 16.6047 7.29937 16.5738 7.29462 16.5401C7.28987 16.5064 7.29743 16.4721 7.3159 16.4435C7.33437 16.4149 7.36252 16.394 7.39519 16.3844C7.87664 16.2462 8.44248 16.1171 9.07742 15.9998C9.09572 15.9965 9.1145 15.9967 9.1327 16.0006C9.1509 16.0045 9.16816 16.0119 9.18349 16.0224C9.19882 16.033 9.21193 16.0464 9.22206 16.062C9.23219 16.0776 9.23914 16.0951 9.24253 16.1134C9.24591 16.1317 9.24566 16.1505 9.24178 16.1687C9.23791 16.1869 9.23048 16.2041 9.21994 16.2195C9.20939 16.2348 9.19593 16.2479 9.18032 16.258C9.16471 16.2682 9.14726 16.2751 9.12896 16.2785C8.50308 16.3918 7.94574 16.5209 7.47336 16.6569C7.46066 16.6606 7.4475 16.6625 7.43427 16.6625V16.662ZM26.1716 16.0729H26.1517C25.6187 15.9981 25.0484 15.9307 24.4565 15.8724C24.4379 15.8706 24.4198 15.8651 24.4034 15.8563C24.3869 15.8475 24.3723 15.8355 24.3604 15.8211C24.3486 15.8067 24.3397 15.79 24.3342 15.7722C24.3288 15.7543 24.3269 15.7355 24.3288 15.7169C24.3306 15.6983 24.336 15.6803 24.3448 15.6638C24.3536 15.6473 24.3656 15.6327 24.38 15.6209C24.3945 15.609 24.4111 15.6001 24.429 15.5947C24.4469 15.5892 24.4656 15.5874 24.4842 15.5892C25.0801 15.6458 25.6544 15.7161 26.1908 15.7908C26.2284 15.7934 26.2634 15.8108 26.2881 15.8391C26.3129 15.8675 26.3253 15.9045 26.3228 15.9421C26.3202 15.9796 26.3029 16.0146 26.2745 16.0394C26.2461 16.0641 26.2091 16.0766 26.1716 16.074V16.0729ZM10.7953 16.0191C10.7578 16.0215 10.7208 16.0089 10.6925 15.984C10.6643 15.9592 10.6471 15.9241 10.6447 15.8866C10.6423 15.849 10.6549 15.812 10.6797 15.7838C10.7046 15.7555 10.7397 15.7383 10.7772 15.7359C11.3452 15.663 11.9146 15.6009 12.4849 15.5495C12.5225 15.5462 12.5598 15.5578 12.5888 15.582C12.6177 15.6062 12.6359 15.6408 12.6393 15.6784C12.6426 15.716 12.631 15.7533 12.6068 15.7823C12.5826 15.8112 12.548 15.8294 12.5104 15.8327C11.9208 15.886 11.3493 15.946 10.8112 16.0174L10.7953 16.0191ZM22.7635 15.7314H22.7539C22.1994 15.6945 21.625 15.664 21.0473 15.6413C21.0097 15.6398 20.9743 15.6234 20.9488 15.5958C20.9233 15.5682 20.9098 15.5316 20.9113 15.494C20.9128 15.4565 20.9292 15.4211 20.9568 15.3956C20.9844 15.3701 21.0211 15.3566 21.0586 15.3581C21.6392 15.3808 22.2158 15.4113 22.7731 15.4487C22.8107 15.4499 22.8462 15.466 22.8719 15.4934C22.8976 15.5208 22.9114 15.5573 22.9102 15.5949C22.909 15.6324 22.8929 15.6679 22.8655 15.6937C22.8381 15.7194 22.8016 15.7331 22.7641 15.7319L22.7635 15.7314ZM14.2051 15.7059C14.1675 15.707 14.1311 15.6932 14.1037 15.6674C14.0764 15.6416 14.0604 15.6061 14.0592 15.5685C14.0581 15.531 14.072 15.4945 14.0977 15.4671C14.1235 15.4398 14.159 15.4238 14.1966 15.4227C14.7551 15.3892 15.3294 15.3626 15.9111 15.3428C15.9297 15.3422 15.9482 15.3452 15.9657 15.3517C15.9831 15.3583 15.9991 15.3682 16.0126 15.3809C16.0262 15.3936 16.0372 15.4088 16.0449 15.4258C16.0526 15.4427 16.0569 15.461 16.0575 15.4796C16.0582 15.4982 16.0551 15.5167 16.0486 15.5341C16.0421 15.5516 16.0322 15.5675 16.0195 15.5811C16.0068 15.5947 15.9915 15.6057 15.9746 15.6134C15.9576 15.6211 15.9393 15.6254 15.9207 15.626C15.3441 15.6453 14.7698 15.6719 14.2136 15.7053L14.2051 15.7059ZM19.3407 15.5926C18.9912 15.5875 18.6361 15.5858 18.2861 15.5852C18.0667 15.5852 17.8486 15.5862 17.6319 15.5881C17.5943 15.5881 17.5583 15.5731 17.5317 15.5466C17.5052 15.52 17.4903 15.484 17.4903 15.4465C17.4903 15.4089 17.5052 15.3729 17.5317 15.3463C17.5583 15.3198 17.5943 15.3049 17.6319 15.3049C17.8511 15.3049 18.0737 15.3009 18.294 15.302C18.644 15.302 18.9986 15.302 19.3475 15.31C19.3851 15.31 19.4211 15.3249 19.4476 15.3514C19.4742 15.378 19.4891 15.414 19.4891 15.4516C19.4891 15.4891 19.4742 15.5251 19.4476 15.5517C19.4211 15.5782 19.3851 15.5932 19.3475 15.5932L19.3407 15.5926Z" fill="#66A9F7"/>
<path d="M6.03695 18.4762C6.01075 18.4762 5.98506 18.469 5.96275 18.4552C5.57816 18.2185 5.38841 17.9596 5.39918 17.6861C5.40068 17.6485 5.41704 17.6131 5.44466 17.5876C5.47227 17.5621 5.50889 17.5486 5.54644 17.5501C5.584 17.5516 5.61942 17.568 5.64491 17.5956C5.6704 17.6232 5.68388 17.6598 5.68238 17.6974C5.67445 17.9013 5.90894 18.0939 6.11115 18.2145C6.13743 18.2307 6.15772 18.2549 6.16893 18.2837C6.18014 18.3124 6.18166 18.344 6.17327 18.3737C6.16487 18.4034 6.14701 18.4295 6.12241 18.4481C6.0978 18.4667 6.06779 18.4768 6.03695 18.4768V18.4762ZM18.2832 20.1108C18.0074 20.1108 17.7281 20.1108 17.4534 20.1063C17.4159 20.1059 17.38 20.0905 17.3538 20.0636C17.3276 20.0368 17.3131 20.0006 17.3135 19.963C17.314 19.9255 17.3293 19.8896 17.3562 19.8634C17.3831 19.8371 17.4193 19.8227 17.4568 19.8231C18.0057 19.8293 18.567 19.8293 19.1124 19.8231C19.131 19.8229 19.1495 19.8263 19.1668 19.8332C19.184 19.8401 19.1998 19.8504 19.2131 19.8634C19.2264 19.8764 19.237 19.8919 19.2443 19.9089C19.2516 19.926 19.2555 19.9444 19.2557 19.963C19.256 19.9816 19.2525 20.0001 19.2456 20.0173C19.2387 20.0346 19.2285 20.0503 19.2155 20.0636C19.2025 20.0769 19.187 20.0876 19.1699 20.0949C19.1528 20.1022 19.1344 20.1061 19.1158 20.1063C18.8428 20.1108 18.5625 20.1108 18.2832 20.1108ZM15.7967 20.0678H15.791C15.2297 20.048 14.6712 20.0213 14.1303 19.9885C14.0928 19.9862 14.0577 19.9692 14.0327 19.941C14.0077 19.9129 13.995 19.876 13.9972 19.8384C13.9995 19.8008 14.0166 19.7657 14.0447 19.7408C14.0729 19.7158 14.1098 19.703 14.1473 19.7053C14.6854 19.7381 15.2422 19.7619 15.8007 19.784C15.8382 19.7847 15.874 19.8003 15.9 19.8273C15.9261 19.8543 15.9404 19.8906 15.9397 19.9282C15.939 19.9657 15.9235 20.0015 15.8964 20.0276C15.8694 20.0536 15.8331 20.0679 15.7956 20.0672L15.7967 20.0678ZM20.7726 20.0678C20.735 20.0685 20.6987 20.0542 20.6717 20.0281C20.6447 20.002 20.6291 19.9663 20.6284 19.9287C20.6278 19.8912 20.642 19.8549 20.6681 19.8279C20.6942 19.8008 20.7299 19.7853 20.7675 19.7846C21.3265 19.7648 21.8833 19.7381 22.4208 19.7059C22.4584 19.7036 22.4953 19.7164 22.5234 19.7413C22.5516 19.7663 22.5687 19.8014 22.5709 19.839C22.5732 19.8765 22.5604 19.9134 22.5354 19.9416C22.5105 19.9697 22.4754 19.9868 22.4378 19.9891C21.8975 20.0219 21.3384 20.0485 20.7771 20.0684L20.7726 20.0678ZM12.4855 19.8639H12.4725C11.8993 19.8118 11.3425 19.7506 10.818 19.6843C10.7804 19.6796 10.7463 19.6601 10.7231 19.6302C10.6999 19.6003 10.6895 19.5624 10.6942 19.5249C10.699 19.4873 10.7184 19.4532 10.7483 19.43C10.7782 19.4068 10.8161 19.3964 10.8537 19.4011C11.3748 19.468 11.9298 19.528 12.4962 19.5796C12.5338 19.5812 12.5692 19.5977 12.5945 19.6254C12.6199 19.6532 12.6333 19.6898 12.6316 19.7274C12.63 19.7649 12.6135 19.8003 12.5857 19.8257C12.558 19.8511 12.5213 19.8644 12.4838 19.8628L12.4855 19.8639ZM24.0838 19.8639C24.0462 19.8655 24.0096 19.8522 23.9818 19.8268C23.9541 19.8014 23.9376 19.7661 23.936 19.7285C23.9343 19.691 23.9476 19.6543 23.973 19.6266C23.9984 19.5988 24.0338 19.5823 24.0713 19.5807C24.6417 19.5291 25.1951 19.4674 25.7139 19.4023C25.7515 19.3975 25.7894 19.4079 25.8193 19.4311C25.8492 19.4543 25.8686 19.4885 25.8733 19.526C25.8781 19.5636 25.8677 19.6015 25.8445 19.6314C25.8213 19.6613 25.7871 19.6807 25.7496 19.6855C25.1992 19.7553 24.6476 19.8151 24.0951 19.865L24.0838 19.8639ZM9.1958 19.4357C9.18732 19.4364 9.17879 19.4364 9.17031 19.4357C8.56029 19.3258 8.01144 19.204 7.53849 19.0743C7.50335 19.0635 7.4738 19.0394 7.45609 19.0072C7.43839 18.9749 7.43392 18.9371 7.44364 18.9016C7.45335 18.8661 7.47649 18.8358 7.50814 18.8171C7.5398 18.7984 7.5775 18.7927 7.61326 18.8013C8.07828 18.9288 8.61863 19.0483 9.22015 19.157C9.25771 19.1603 9.29241 19.1784 9.31663 19.2073C9.34085 19.2362 9.3526 19.2735 9.34929 19.3111C9.34599 19.3486 9.3279 19.3833 9.29901 19.4076C9.27012 19.4318 9.23279 19.4435 9.19523 19.4402L9.1958 19.4357ZM27.3729 19.4357C27.3543 19.4373 27.3356 19.4353 27.3178 19.4297C27.3 19.4241 27.2834 19.415 27.2691 19.403C27.2548 19.391 27.243 19.3763 27.2344 19.3598C27.2258 19.3432 27.2205 19.3251 27.2188 19.3065C27.2172 19.2879 27.2192 19.2692 27.2249 19.2514C27.2305 19.2336 27.2395 19.2171 27.2515 19.2028C27.2635 19.1885 27.2782 19.1767 27.2947 19.168C27.3113 19.1594 27.3294 19.1541 27.348 19.1525C27.9495 19.0437 28.4904 18.9259 28.9554 18.7968C28.9736 18.7912 28.9926 18.7893 29.0115 18.7912C29.0304 18.7931 29.0487 18.7988 29.0653 18.808C29.082 18.8171 29.0966 18.8295 29.1083 18.8444C29.1201 18.8593 29.1287 18.8764 29.1337 18.8947C29.1387 18.913 29.14 18.9321 29.1375 18.9509C29.135 18.9697 29.1287 18.9878 29.1191 19.0042C29.1094 19.0205 29.0966 19.0347 29.0813 19.046C29.066 19.0573 29.0487 19.0654 29.0302 19.0698C28.5573 19.1995 28.0107 19.3213 27.3984 19.4312C27.3905 19.4318 27.3825 19.4318 27.3746 19.4312L27.3729 19.4357ZM30.5323 18.4762C30.5015 18.4762 30.4715 18.4661 30.4469 18.4475C30.4223 18.4289 30.4044 18.4028 30.396 18.3731C30.3876 18.3435 30.3891 18.3119 30.4003 18.2831C30.4116 18.2544 30.4318 18.2301 30.4581 18.2139C30.6581 18.0905 30.8948 17.9007 30.8869 17.6968C30.8861 17.6782 30.8891 17.6597 30.8955 17.6422C30.9019 17.6247 30.9117 17.6087 30.9244 17.595C30.937 17.5814 30.9522 17.5703 30.9691 17.5625C30.986 17.5547 31.0042 17.5503 31.0228 17.5496C31.0414 17.5488 31.06 17.5517 31.0774 17.5582C31.0949 17.5646 31.1109 17.5744 31.1246 17.587C31.1383 17.5996 31.1493 17.6148 31.1571 17.6317C31.165 17.6486 31.1694 17.6669 31.1701 17.6855C31.1809 17.9591 30.9911 18.2179 30.6065 18.4547C30.5843 18.4686 30.5586 18.4761 30.5323 18.4762Z" fill="#66A9F7"/>
</svg>
