<svg width="24" height="49" viewBox="0 0 24 49" fill="none" xmlns="http://www.w3.org/2000/svg">
<path opacity="0.5" d="M3.68144 3.34473L8.53473 5.99014L15.7944 6.18864L20.2953 3.55539L20.9353 5.26498C20.9353 5.26498 23.7671 12.9055 23.5524 17.1794C23.3539 21.182 22.8637 24.7227 19.1731 27.9191C16.394 30.3214 13.6189 30.5361 13.6189 30.5361L13.6716 38.7114C13.6716 38.7114 17.3055 38.8734 19.4405 40.2589C21.3688 41.5107 21.6848 42.718 21.6848 43.516C21.6848 44.3182 20.9353 48.4301 11.8567 48.3248C2.77804 48.2194 2.23923 43.7834 2.23923 42.9813C2.23923 42.1792 3.09808 40.6357 5.65841 39.6674C8.06075 38.76 10.1471 38.8653 10.1471 38.8653V30.3781C10.1471 30.3781 6.78058 29.5233 4.2162 27.0643C2.63219 25.5451 -0.00511292 22.0976 0.371645 16.4867C0.695738 11.5686 3.68144 3.34473 3.68144 3.34473Z" fill="white"/>
<path opacity="0.7" d="M3.68144 3.3447L5.60575 1.58244L8.5955 0.622314L15.4865 0.674979L18.6383 2.01186L20.2953 3.55941L20.9353 5.269C20.9353 5.269 23.7671 12.9095 23.5524 17.1835C23.3539 21.186 22.8637 24.7267 19.1731 27.9231C16.394 30.3254 13.6189 30.5401 13.6189 30.5401L13.6432 38.6992C13.6432 38.6992 17.2974 39.1165 19.4364 40.506C21.3648 41.7578 21.6848 42.722 21.6848 43.5241C21.6848 44.3262 20.9353 48.4382 11.8567 48.3328C2.77804 48.2275 2.23923 43.7915 2.23923 42.9894C2.23923 42.1872 3.09808 40.6437 5.65841 39.6755C8.06075 38.7681 10.1187 38.7032 10.1187 38.7032L10.1471 30.3821C10.1471 30.3821 6.78058 29.5274 4.2162 27.0683C2.63219 25.5491 -0.00511292 22.1016 0.371645 16.4907C0.695738 11.5686 3.68144 3.3447 3.68144 3.3447Z" fill="#E0E0E0"/>
<path d="M9.85946 30.5685C9.74198 30.5321 7.11683 29.896 5.33432 28.5024C1.86652 25.7881 0.22175 22.7943 0.0110893 18.7999C-0.114497 16.4421 0.853732 12.4355 1.54243 9.62807C2.24733 6.76795 3.09807 4.62893 3.10618 4.60462C3.10618 4.60462 3.21961 4.28053 3.34114 4.3413C3.59637 4.47094 3.34114 5.59716 3.34114 5.59716C3.14669 6.31827 2.96034 6.99886 2.27164 9.81847C1.59509 12.5773 0.70789 16.5029 0.825374 18.7513C1.02388 22.4905 2.56737 25.302 5.83666 27.8583C7.49764 29.1587 9.60829 29.6692 9.89592 29.8069C10.1836 29.9446 10.5563 30.0095 10.5036 30.3781C10.4469 30.7589 9.85946 30.5685 9.85946 30.5685Z" fill="#D4D4D4"/>
<path d="M13.9228 30.6698C13.6189 30.6982 13.3232 30.6455 13.2989 30.3498C13.2665 29.9852 13.7202 29.9608 13.7202 29.9608C14.02 29.8515 15.5554 29.7259 17.0746 28.8144C21.3567 26.2459 23.4309 22.215 23.1635 16.989C22.7908 9.78201 19.9631 4.29269 19.9347 4.24003L20.4695 3.4541C20.4978 3.51082 23.5889 9.56325 23.9737 16.9485C24.2613 22.4946 22.1912 26.7928 17.6336 29.5233C15.9727 30.5199 14.0808 30.6536 13.9228 30.6698Z" fill="#9E9E9E"/>
<path d="M12.5089 7.43235C12.4076 7.43235 12.3064 7.43235 12.2051 7.42829C8.64007 7.37563 5.59359 6.37094 4.11897 4.94493C3.59232 4.43854 3.5194 4.08609 3.49104 3.52703C3.43837 2.5669 4.5808 0.168614 12.0228 0.209125C16.9287 0.233432 20.5707 1.75262 20.591 3.65666C20.5991 4.23193 20.4978 4.70186 19.9509 5.24472C18.5533 6.61806 15.7823 7.43235 12.5089 7.43235ZM11.6582 1.21786C6.78058 1.25838 4.69018 2.60336 4.71044 3.47436C4.71449 3.69717 4.73069 3.82276 4.99807 4.09824C5.97035 5.11103 8.58335 6.15623 12.2253 6.20889C15.8552 6.26966 18.1603 5.29738 19.1002 4.36967C19.404 4.07393 19.5579 3.97671 19.5579 3.74174C19.5579 2.82212 17.585 1.33535 12.3671 1.22192C12.1281 1.22192 11.8891 1.21786 11.6582 1.21786Z" fill="#C8C8C8"/>
<path d="M12.5859 6.54919C12.2578 6.54919 11.9134 6.54109 11.5569 6.52083C5.88527 6.22105 4.78336 3.94834 4.73069 3.84301C4.63347 3.64046 4.5889 3.24749 4.74285 3.20293C4.94946 3.14216 5.05884 3.32447 5.2695 3.51892C5.60979 3.83491 6.8373 5.47563 11.962 5.59312C16.9855 5.7106 18.6019 4.17926 18.8976 3.91188C19.1204 3.70933 19.3554 3.28801 19.5417 3.40954C19.7281 3.53107 19.6309 4.01721 19.5215 4.20762C19.3513 4.4993 18.0833 6.54919 12.5859 6.54919Z" fill="white"/>
<path d="M11.9661 30.8562C11.0951 30.8562 11.2733 31.5246 11.2288 35.9687C11.1963 39.5135 11.565 40.1455 11.9296 40.1819C12.2983 40.2144 12.6305 39.947 12.6305 36.2037C12.6345 31.8609 12.7682 30.8562 11.9661 30.8562Z" fill="#9E9E9E"/>
<path d="M13.3111 39.0841C12.9789 39.1124 13.3394 39.8376 12.8897 40.4129C12.5332 40.8666 11.8648 41.138 11.8931 41.6485C11.9215 42.163 14.5467 41.8308 14.5467 40.8625C14.5467 40.4858 14.2712 40.2225 14.0038 39.866C13.7364 39.5095 13.4772 39.0679 13.3111 39.0841Z" fill="white"/>
<path d="M7.24646 42.7342C7.24646 42.7342 8.40105 44.2817 11.958 44.3141C15.5473 44.3465 16.4345 43.2608 16.5682 42.8314C16.6654 42.5073 15.4501 40.8099 15.3002 40.8382C15.1503 40.8666 14.7573 42.4425 11.9823 42.3412C9.20723 42.2399 9.13431 41.1502 8.91149 40.9435C8.73324 40.7774 7.24646 42.7342 7.24646 42.7342Z" fill="#9E9E9E"/>
<path d="M3.92857 41.9807C3.02921 42.0981 2.9887 43.1434 3.56801 44.0913C4.74285 46.0237 8.64412 47.3444 8.84667 46.2952C9.02898 45.3593 6.97909 45.1203 7.1857 43.5485C7.33559 42.402 9.38953 41.3446 8.81426 40.741C8.24305 40.1374 7.368 41.5553 6.18911 41.8267C5.16012 42.0657 4.62131 41.8915 3.92857 41.9807Z" fill="white"/>
<path d="M16.9612 40.4413C16.4588 40.8423 17.9577 41.2555 17.897 42.4911C17.8362 43.7267 16.6006 44.2615 16.8396 44.6018C17.2002 45.1163 19.327 44.0265 19.2541 42.3372C19.1933 40.9558 17.4149 40.0807 16.9612 40.4413Z" fill="#CACACA"/>
<path d="M16.4183 46.1452C16.6006 46.7164 18.9989 46.4693 20.1292 44.8489C21.304 43.1595 20.4897 41.7416 20.04 41.8915C19.5863 42.0414 20.2223 43.0988 19.0759 44.2128C17.9253 45.3269 16.2157 45.5051 16.4183 46.1452Z" fill="white"/>
<path d="M2.24328 42.9286C2.13795 42.8314 1.94755 43.7875 2.26759 44.5734C2.53902 45.2378 3.92857 48.7056 12.2537 48.7663C21.5147 48.8352 21.9886 44.8651 21.8712 43.7551C21.7942 43.0218 21.6524 42.7706 21.5795 42.7706C21.5106 42.7666 21.4377 43.4188 21.3769 43.7713C21.1825 44.8732 20.0968 47.6523 12.4036 47.713C5.40319 47.7698 3.3533 44.9056 2.99275 44.3951C2.73752 44.0305 2.30405 42.9853 2.24328 42.9286Z" fill="#9E9E9E"/>
<path d="M1.62345 17.9532L2.86716 21.34L7.42877 23.795L13.2665 24.8969L19.0718 19.8532L21.1095 16.8472C21.1095 16.8472 19.1083 15.9965 16.8477 15.6643C13.3232 15.1457 10.3294 15.0161 6.80489 15.6724C2.4742 16.4786 1.62345 17.9532 1.62345 17.9532Z" fill="#CC1935"/>
<path d="M9.60424 23.0658C13.6797 23.2035 14.2347 20.8215 17.5526 18.4718C20.8705 16.1221 22.2155 16.8149 22.2155 16.8149C22.2155 16.8149 23.3296 21.8667 19.485 25.8652C16.1347 29.3532 9.99721 30.4025 5.15202 26.2986C1.55864 23.2562 1.62345 17.9532 1.62345 17.9532C1.62345 17.9532 4.45522 22.8916 9.60424 23.0658Z" fill="url(#paint0_radial_28_348)"/>
<path d="M4.3904 6.68692C4.3904 6.68692 3.81919 8.29523 3.09808 11.52C2.47825 14.2909 2.22303 16.0532 2.22303 16.0532C2.22303 16.0532 3.5275 15.405 4.98187 15.0242C6.2985 14.6799 7.43687 14.7487 7.43687 14.7487C7.43687 14.7487 7.40041 12.6381 7.57461 11.1148C7.7164 9.85898 8.02429 8.24257 8.02429 8.24257C8.02429 8.24257 6.88186 7.96709 6.18911 7.65515C5.49637 7.34321 4.3904 6.68692 4.3904 6.68692Z" fill="white"/>
<defs>
<radialGradient id="paint0_radial_28_348" cx="0" cy="0" r="1" gradientUnits="userSpaceOnUse" gradientTransform="translate(12.0315 18.6365) rotate(90.1553) scale(10.2418 10.6709)">
<stop offset="0.404" stop-color="#AF0D1A"/>
<stop offset="0.535" stop-color="#AB0C19"/>
<stop offset="0.667" stop-color="#9F0B17"/>
<stop offset="0.801" stop-color="#8A0813"/>
<stop offset="0.935" stop-color="#6E050D"/>
<stop offset="0.96" stop-color="#68040C"/>
</radialGradient>
</defs>
</svg>
